<svg width="1600" height="1200" xmlns="http://www.w3.org/2000/svg"><rect width="1600" height="1200" fill="#000000"/><path d="M 690.9756469726562 436.0975646972656 L 689.51220703125 436.0975646972656 L 688.0487670898438 436.0975646972656 L 685.1219482421875 436.0975646972656 L 680.731689453125 437.56097412109375 L 639.756103515625 443.4146423339844 L 619.268310546875 446.3414611816406 L 598.780517578125 447.80487060546875 L 573.9024658203125 453.6585388183594 L 544.6341552734375 458.04876708984375 L 519.756103515625 465.3658447265625 L 499.268310546875 471.2195129394531 L 483.1707458496094 477.07318115234375 L 467.07318115234375 484.3902587890625 L 452.43902587890625 493.1707458496094 L 440.7317199707031 500.48779296875 L 431.95123291015625 509.2682800292969 L 424.6341552734375 518.0487670898438 L 420.243896484375 526.8292846679688 L 414.3902587890625 540 L 411.4634094238281 556.0975341796875 L 408.5365905761719 573.6585083007812 L 407.07318115234375 594.1463623046875 L 408.5365905761719 614.6341552734375 L 415.8536682128906 639.51220703125 L 427.56097412109375 668.780517578125 L 439.268310546875 690.731689453125 L 452.43902587890625 714.1463623046875 L 472.9268493652344 743.4146118164062 L 496.3414611816406 772.6829223632812 L 518.2926635742188 794.6341552734375 L 534.3902587890625 807.8048706054688 L 553.4146118164062 822.4390258789062 L 582.6829223632812 840 L 592.9268188476562 844.3902587890625 L 601.7073364257812 847.3170776367188 L 611.9512329101562 848.780517578125 L 620.731689453125 850.243896484375 L 630.9756469726562 848.780517578125 L 641.2195434570312 847.3170776367188 L 661.7073364257812 842.9268188476562 L 677.8048706054688 838.5365600585938 L 693.9024658203125 832.6829223632812 L 714.3902587890625 825.3658447265625 L 739.268310546875 815.1219482421875 L 762.6829223632812 803.4146118164062 L 781.7073364257812 788.780517578125 L 802.1951293945312 771.219482421875 L 818.2926635742188 755.1219482421875 L 832.9268188476562 734.6341552734375 L 844.6341552734375 712.6829223632812 L 851.9512329101562 692.1951293945312 L 856.3414916992188 671.7073364257812 L 856.3414916992188 651.219482421875 L 849.0244140625 626.3414916992188 L 838.780517578125 597.0731811523438 L 828.53662109375 576.5853881835938 L 813.9024658203125 556.0975341796875 L 800.731689453125 540 L 784.6341552734375 523.9024658203125 L 759.756103515625 504.8780517578125 L 740.731689453125 487.31707763671875 L 726.0975952148438 477.07318115234375 L 707.0731811523438 465.3658447265625 L 693.9024658203125 458.04876708984375 L 673.4146118164062 449.2682800292969 L 652.9268188476562 439.0243835449219 L 628.0487670898438 430.243896484375 L 607.5609741210938 422.92681884765625 L 582.6829223632812 412.68292236328125 L 557.8048706054688 405.3658447265625 L 532.9268188476562 400.9756164550781 L 512.4390258789062 395.1219482421875 L 491.95123291015625 393.6585388183594 L 474.3902587890625 390.7317199707031 L 458.2926940917969 389.2682800292969 L 445.1219482421875 389.2682800292969 L 439.268310546875 389.2682800292969 L 433.4146423339844 389.2682800292969 L 430.4878234863281 389.2682800292969 L 429.0243835449219 390.7317199707031 L 426.0975646972656 390.7317199707031 L 424.6341552734375 392.19512939453125 L 421.70733642578125 393.6585388183594 L 418.7804870605469 395.1219482421875 L 412.9268493652344 399.51220703125 L 408.5365905761719 405.3658447265625 L 407.07318115234375 409.756103515625 L 404.1463623046875 412.68292236328125 L 402.68292236328125 415.6097412109375 L 401.2195129394531 418.5365905761719 L 401.2195129394531 421.4634094238281 L 401.2195129394531 422.92681884765625 L 402.68292236328125 422.92681884765625 L 402.68292236328125 422.92681884765625 L 404.1463623046875 424.3902587890625 L 404.1463623046875 425.8536682128906 L 407.07318115234375 427.31707763671875" stroke="#ffffff" stroke-width="2" fill="none" stroke-linecap="round" stroke-linejoin="round"/><path d="M 837.3170776367188 619.0244140625 L 837.3170776367188 620.48779296875 L 837.3170776367188 620.48779296875 L 837.3170776367188 621.9512329101562 L 837.3170776367188 621.9512329101562 L 835.8536376953125 621.9512329101562 L 834.3902587890625 623.4146118164062 L 832.9268188476562 624.8780517578125 L 830 626.3414916992188 L 827.0731811523438 630.731689453125 L 819.756103515625 635.1219482421875 L 812.4390258789062 638.0487670898438 L 802.1951293945312 643.9024658203125 L 793.4146118164062 648.2926635742188 L 780.243896484375 654.1463623046875 L 765.6097412109375 662.9268188476562 L 749.51220703125 670.243896484375 L 734.8780517578125 679.0244140625 L 720.243896484375 686.3414916992188 L 707.0731811523438 695.1219482421875 L 692.4390258789062 703.9024658203125 L 677.8048706054688 711.219482421875 L 666.0975952148438 718.5365600585938 L 658.780517578125 725.8536376953125 L 652.9268188476562 730.243896484375 L 648.53662109375 736.0975341796875 L 645.6097412109375 741.9512329101562 L 644.1463623046875 746.3414916992188 L 642.6829223632812 750.731689453125 L 642.6829223632812 755.1219482421875 L 642.6829223632812 762.4390258789062 L 644.1463623046875 769.756103515625 L 647.0731811523438 782.9268188476562 L 652.9268188476562 796.0975341796875 L 658.780517578125 804.8780517578125 L 663.1707153320312 818.0487670898438 L 669.0244140625 828.2926635742188 L 673.4146118164062 834.1463623046875 L 676.3414916992188 840 L 679.268310546875 842.9268188476562 L 680.731689453125 845.8536376953125 L 682.1951293945312 847.3170776367188 L 683.6585693359375 848.780517578125 L 685.1219482421875 850.243896484375 L 686.5853881835938 850.243896484375 L 688.0487670898438 851.7073364257812 L 689.51220703125 853.1707153320312 L 690.9756469726562 853.1707153320312 L 692.4390258789062 854.6341552734375 L 692.4390258789062 854.6341552734375 L 693.9024658203125 856.0975341796875 L 695.3658447265625 856.0975341796875 L 695.3658447265625 856.0975341796875 L 695.3658447265625 856.0975341796875 L 696.8292846679688 856.0975341796875 L 698.2926635742188 856.0975341796875 L 698.2926635742188 856.0975341796875 L 699.756103515625 856.0975341796875 L 701.2195434570312 856.0975341796875 L 702.6829223632812 856.0975341796875 L 705.6097412109375 853.1707153320312 L 710 851.7073364257812 L 717.3170776367188 847.3170776367188 L 727.5609741210938 840 L 739.268310546875 829.756103515625 L 753.9024658203125 819.51220703125 L 768.53662109375 809.268310546875 L 778.780517578125 801.9512329101562 L 787.5609741210938 793.1707153320312 L 793.4146118164062 787.3170776367188 L 797.8048706054688 781.4634399414062 L 800.731689453125 777.0731811523438 L 802.1951293945312 772.6829223632812 L 802.1951293945312 768.2926635742188 L 803.6585693359375 760.9755859375 L 803.6585693359375 750.731689453125 L 803.6585693359375 741.9512329101562 L 802.1951293945312 734.6341552734375 L 802.1951293945312 724.3902587890625 L 800.731689453125 717.0731811523438 L 800.731689453125 712.6829223632812 L 800.731689453125 708.2926635742188 L 799.268310546875 705.3658447265625 L 797.8048706054688 702.4390258789062 L 797.8048706054688 700.9755859375 L 797.8048706054688 699.51220703125 L 796.3414916992188 698.0487670898438 L 796.3414916992188 696.5853881835938 L 794.8780517578125 695.1219482421875 L 794.8780517578125 692.1951293945312 L 791.9512329101562 689.268310546875 L 791.9512329101562 686.3414916992188 L 789.0244140625 681.9512329101562 L 786.0975952148438 677.5609741210938 L 784.6341552734375 671.7073364257812 L 780.243896484375 665.8536376953125 L 775.8536376953125 661.4634399414062 L 771.4634399414062 654.1463623046875 L 767.0731811523438 648.2926635742188 L 762.6829223632812 642.4390258789062 L 759.756103515625 636.5853881835938 L 755.3658447265625 633.6585083007812 L 752.4390258789062 629.268310546875 L 749.51220703125 626.3414916992188 L 748.0487670898438 624.8780517578125 L 746.5853881835938 623.4146118164062 L 746.5853881835938 621.9512329101562 L 745.1219482421875 620.48779296875 L 745.1219482421875 619.0244140625 L 745.1219482421875 619.0244140625 L 745.1219482421875 617.5609741210938 L 745.1219482421875 616.0975341796875 L 745.1219482421875 614.6341552734375 L 746.5853881835938 613.1707153320312 L 749.51220703125 611.7073364257812 L 753.9024658203125 608.780517578125" stroke="#ffffff" stroke-width="2" fill="none" stroke-linecap="round" stroke-linejoin="round"/><path d="M 191.95123291015625 768.2926635742188 L 194.8780517578125 766.8292846679688 L 200.73171997070312 762.4390258789062 L 209.51220703125 758.0487670898438 L 232.9268341064453 747.8048706054688 L 247.5609893798828 739.0244140625 L 262.19512939453125 730.243896484375 L 278.2926940917969 724.3902587890625 L 294.3902587890625 717.0731811523438 L 323.6585388183594 702.4390258789062 L 339.756103515625 696.5853881835938 L 357.31707763671875 690.731689453125 L 386.58538818359375 679.0244140625 L 411.4634094238281 670.243896484375 L 424.6341552734375 664.3902587890625 L 440.7317199707031 658.5365600585938 L 474.3902587890625 645.3658447265625 L 490.4878234863281 639.51220703125 L 510.9756164550781 630.731689453125 L 544.6341552734375 616.0975341796875 L 573.9024658203125 605.8536376953125 L 585.6097412109375 600 L 595.8536376953125 597.0731811523438 L 603.1707153320312 594.1463623046875 L 610.48779296875 592.6829223632812 L 611.9512329101562 591.219482421875 L 613.4146118164062 591.219482421875 L 619.268310546875 589.756103515625 L 622.1951293945312 588.2926635742188 L 628.0487670898438 586.8292846679688 L 633.9024658203125 583.9024658203125 L 654.3902587890625 576.5853881835938 L 679.268310546875 569.268310546875 L 692.4390258789062 563.4146118164062 L 708.53662109375 560.48779296875 L 721.7073364257812 556.0975341796875 L 739.268310546875 551.7073364257812 L 743.6585693359375 550.243896484375 L 748.0487670898438 548.780517578125 L 750.9756469726562 548.780517578125 L 756.8292846679688 548.780517578125 L 759.756103515625 548.780517578125 L 762.6829223632812 547.3170776367188 L 767.0731811523438 547.3170776367188 L 770 547.3170776367188 L 771.4634399414062 547.3170776367188 L 772.9268188476562 547.3170776367188 L 774.3902587890625 547.3170776367188 L 774.3902587890625 547.3170776367188 L 774.3902587890625 547.3170776367188 L 777.3170776367188 550.243896484375 L 778.780517578125 553.1707153320312 L 784.6341552734375 560.48779296875 L 787.5609741210938 566.3414916992188 L 793.4146118164062 573.6585083007812 L 802.1951293945312 588.2926635742188 L 815.3658447265625 616.0975341796875 L 821.2195434570312 632.1951293945312 L 827.0731811523438 645.3658447265625 L 838.780517578125 690.731689453125 L 847.5609741210938 727.3170776367188 L 851.9512329101562 743.4146118164062 L 857.8048706054688 759.51220703125 L 862.1951293945312 769.756103515625 L 868.0487670898438 781.4634399414062 L 869.51220703125 784.3902587890625 L 872.4390258789062 785.8536376953125 L 875.3658447265625 787.3170776367188 L 875.3658447265625 787.3170776367188 L 876.8292846679688 787.3170776367188 L 878.2926635742188 785.8536376953125 L 887.0731811523438 778.5365600585938 L 898.780517578125 768.2926635742188 L 914.8780517578125 752.1951293945312 L 941.2195434570312 728.780517578125 L 996.8292846679688 673.1707153320312 L 1018.780517578125 652.6829223632812 L 1046.5853271484375 620.48779296875 L 1075.8536376953125 588.2926635742188 L 1118.292724609375 535.6097412109375 L 1130 512.1951293945312 L 1143.1707763671875 485.8536682128906 L 1154.8780517578125 449.2682800292969 L 1159.268310546875 431.7073059082031 L 1160.731689453125 418.5365905761719 L 1160.731689453125 406.8292541503906 L 1160.731689453125 393.6585388183594 L 1159.268310546875 376.0975646972656 L 1157.804931640625 370.243896484375 L 1156.3414306640625 364.3902587890625 L 1154.8780517578125 360 L 1154.8780517578125 352.68292236328125 L 1154.8780517578125 349.756103515625 L 1153.4146728515625 348.2926940917969 L 1153.4146728515625 346.8292541503906 L 1153.4146728515625 343.9024353027344 L 1151.951171875 343.9024353027344 L 1151.951171875 343.9024353027344 L 1151.951171875 343.9024353027344 L 1150.48779296875 343.9024353027344 L 1149.0244140625 345.3658447265625 L 1143.1707763671875 351.2195129394531 L 1132.9268798828125 360 L 1119.756103515625 373.1707458496094 L 1106.5853271484375 389.2682800292969 L 1074.3902587890625 431.7073059082031 L 1059.756103515625 453.6585388183594 L 1039.268310546875 482.92681884765625 L 1021.7073364257812 510.7317199707031 L 1002.6829223632812 544.3902587890625 L 993.9024658203125 559.0244140625 L 989.51220703125 569.268310546875 L 985.1219482421875 578.0487670898438 L 980.731689453125 595.6097412109375 L 979.268310546875 602.9268188476562 L 977.8048706054688 607.3170776367188 L 974.8780517578125 614.6341552734375 L 974.8780517578125 619.0244140625 L 974.8780517578125 624.8780517578125 L 974.8780517578125 627.8048706054688 L 974.8780517578125 632.1951293945312 L 974.8780517578125 643.9024658203125 L 976.3414916992188 651.219482421875 L 976.3414916992188 655.6097412109375 L 977.8048706054688 660 L 980.731689453125 670.243896484375 L 980.731689453125 673.1707153320312 L 983.6585693359375 676.0975341796875 L 985.1219482421875 680.48779296875 L 989.51220703125 687.8048706054688 L 993.9024658203125 692.1951293945312 L 996.8292846679688 693.6585083007812 L 999.756103515625 698.0487670898438 L 1005.6097412109375 703.9024658203125 L 1012.9268188476562 706.8292846679688 L 1026.0975341796875 714.1463623046875 L 1034.8780517578125 720 L 1052.4390869140625 724.3902587890625 L 1061.219482421875 725.8536376953125 L 1071.46337890625 727.3170776367188 L 1084.6341552734375 727.3170776367188 L 1097.804931640625 725.8536376953125 L 1122.6829833984375 721.4634399414062 L 1135.8536376953125 720 L 1149.0244140625 715.6097412109375 L 1170.9755859375 708.2926635742188 L 1197.317138671875 692.1951293945312 L 1211.951171875 679.0244140625 L 1232.4390869140625 661.4634399414062 L 1248.53662109375 645.3658447265625 L 1277.804931640625 608.780517578125 L 1288.048828125 594.1463623046875 L 1293.9024658203125 578.0487670898438 L 1304.1463623046875 548.780517578125 L 1305.6097412109375 538.5365600585938 L 1302.6829833984375 526.8292846679688 L 1299.756103515625 513.6585083007812 L 1290.9755859375 490.243896484375 L 1286.5853271484375 481.4634094238281 L 1282.195068359375 474.1463317871094 L 1273.4146728515625 465.3658447265625 L 1263.1707763671875 455.1219482421875 L 1239.756103515625 434.6341552734375 L 1222.195068359375 422.92681884765625 L 1203.1707763671875 411.2195129394531 L 1181.219482421875 399.51220703125 L 1135.8536376953125 380.48779296875 L 1110.9755859375 373.1707458496094 L 1086.0975341796875 364.3902587890625 L 1050.9755859375 355.6097412109375 L 980.731689453125 340.9756164550781 L 945.6097412109375 338.04876708984375 L 914.8780517578125 335.1219482421875 L 879.756103515625 335.1219482421875 L 850.48779296875 338.04876708984375 L 809.51220703125 345.3658447265625 L 796.3414916992188 348.2926940917969 L 789.0244140625 352.68292236328125 L 780.243896484375 361.4634094238281 L 775.8536376953125 365.8536682128906 L 772.9268188476562 371.7073059082031 L 771.4634399414062 380.48779296875 L 770 398.04876708984375 L 778.780517578125 443.4146423339844 L 799.268310546875 487.31707763671875 L 851.9512329101562 567.8048706054688 L 1015.8536376953125 763.9024658203125 L 1288.048828125 973.1707153320312 L 1460.731689453125 1077.0731201171875 L 1600 1163.4146728515625" stroke="#ffffff" stroke-width="2" fill="none" stroke-linecap="round" stroke-linejoin="round"/><path d="M 1175.3658447265625 601.4634399414062 L 1175.3658447265625 601.4634399414062 L 1175.3658447265625 602.9268188476562 L 1175.3658447265625 604.3902587890625 L 1175.3658447265625 607.3170776367188 L 1172.4390869140625 619.0244140625 L 1168.048828125 626.3414916992188 L 1163.6585693359375 633.6585083007812 L 1156.3414306640625 643.9024658203125 L 1141.707275390625 664.3902587890625 L 1113.9024658203125 696.5853881835938 L 1099.268310546875 715.6097412109375 L 1075.8536376953125 744.8780517578125 L 1034.8780517578125 791.7073364257812 L 993.9024658203125 838.5365600585938 L 967.5609741210938 861.9512329101562 L 941.2195434570312 885.3658447265625 L 910.48779296875 908.780517578125 L 862.1951293945312 946.8292846679688 L 840.243896484375 961.4634399414062 L 816.8292846679688 976.0975341796875 L 764.1463623046875 1015.6097412109375 L 743.6585693359375 1031.707275390625 L 718.780517578125 1050.731689453125 L 695.3658447265625 1068.292724609375 L 663.1707153320312 1096.0975341796875 L 648.53662109375 1109.268310546875 L 647.0731811523438 1112.195068359375 L 647.0731811523438 1112.195068359375 L 647.0731811523438 1112.195068359375 L 648.53662109375 1112.195068359375 L 657.3170776367188 1104.8780517578125 L 666.0975952148438 1099.0244140625 L 680.731689453125 1090.243896484375 L 702.6829223632812 1075.6097412109375 L 740.731689453125 1053.6585693359375 L 828.53662109375 1012.6829223632812" stroke="#ffffff" stroke-width="2" fill="none" stroke-linecap="round" stroke-linejoin="round"/><path d="M 1400.731689453125 794.6341552734375 L 1402.195068359375 794.6341552734375 L 1405.1219482421875 796.0975341796875 L 1406.5853271484375 796.0975341796875 L 1409.51220703125 797.5609741210938 L 1415.3658447265625 801.9512329101562 L 1421.219482421875 806.3414916992188 L 1430 815.1219482421875 L 1444.6341552734375 832.6829223632812 L 1457.804931640625 848.780517578125 L 1473.9024658203125 870.731689453125 L 1497.317138671875 911.7073364257812 L 1506.0975341796875 932.1951293945312 L 1513.4146728515625 952.6829223632812 L 1520.731689453125 977.5609741210938 L 1528.048828125 1022.9268188476562 L 1530.9755859375 1047.804931640625 L 1530.9755859375 1063.9024658203125 L 1530.9755859375 1077.0731201171875 L 1530.9755859375 1090.243896484375 L 1530.9755859375 1104.8780517578125 L 1530.9755859375 1107.804931640625 L 1532.4390869140625 1109.268310546875 L 1532.4390869140625 1110.731689453125 L 1533.9024658203125 1110.731689453125 L 1533.9024658203125 1110.731689453125 L 1535.3658447265625 1110.731689453125 L 1535.3658447265625 1110.731689453125 L 1538.292724609375 1112.195068359375 L 1541.219482421875 1112.195068359375 L 1544.1463623046875 1113.6585693359375 L 1547.0731201171875 1115.1219482421875 L 1550 1116.5853271484375 L 1554.3902587890625 1116.5853271484375 L 1557.317138671875 1118.048828125 L 1560.243896484375 1118.048828125 L 1571.951171875 1119.51220703125 L 1577.804931640625 1119.51220703125 L 1583.6585693359375 1120.9755859375 L 1593.9024658203125 1120.9755859375 L 1600 1122.43896484375 L 1600 1122.43896484375 L 1600 1122.43896484375 L 1600 1123.9024658203125 L 1600 1123.9024658203125 L 1600 1123.9024658203125 L 1600 1123.9024658203125 L 1600 1123.9024658203125 L 1600 1123.9024658203125 L 1600 1123.9024658203125 L 1600 1123.9024658203125 L 1600 1123.9024658203125 L 1600 1123.9024658203125 L 1600 1122.43896484375 L 1600 1122.43896484375 L 1600 1120.9755859375 L 1600 1119.51220703125 L 1600 1116.5853271484375 L 1600 1113.6585693359375 L 1600 1110.731689453125 L 1600 1107.804931640625 L 1600 1106.3414306640625 L 1600 1104.8780517578125 L 1600 1100.48779296875 L 1600 1099.0244140625 L 1600 1096.0975341796875 L 1600 1091.707275390625 L 1600 1085.8536376953125 L 1598.292724609375 1077.0731201171875 L 1548.53662109375 1062.43896484375 L 1517.804931640625 1052.195068359375 L 1470.9755859375 1037.56103515625 L 1333.4146728515625 1005.3658447265625 L 1279.268310546875 990.731689453125 L 1192.9268798828125 973.1707153320312 L 1087.56103515625 952.6829223632812 L 876.8292846679688 917.5609741210938 L 686.5853881835938 889.756103515625 L 600.243896484375 875.1219482421875 L 531.4634399414062 867.8048706054688 L 477.31707763671875 860.48779296875 L 417.31707763671875 854.6341552734375 L 399.756103515625 853.1707153320312 L 383.6585388183594 850.243896484375 L 374.8780517578125 850.243896484375 L 364.6341552734375 848.780517578125 L 361.70733642578125 848.780517578125 L 358.7804870605469 848.780517578125 L 352.9268493652344 850.243896484375 L 347.07318115234375 850.243896484375 L 342.68292236328125 850.243896484375 L 335.3658752441406 851.7073364257812 L 329.51220703125 851.7073364257812 L 319.268310546875 851.7073364257812 L 311.95123291015625 851.7073364257812 L 301.70733642578125 851.7073364257812 L 292.9268493652344 851.7073364257812 L 282.68292236328125 851.7073364257812 L 266.58538818359375 850.243896484375 L 259.268310546875 848.780517578125 L 251.95123291015625 847.3170776367188 L 241.7073211669922 845.8536376953125 L 222.6829376220703 842.9268188476562 L 209.51220703125 838.5365600585938 L 177.31707763671875 826.8292846679688 L 156.8292694091797 819.51220703125 L 102.68293762207031 801.9512329101562 L 66.09756469726562 790.243896484375 L 29.512203216552734 774.1463623046875 L 0 756.5853881835938 L 0 721.4634399414062 L 0 706.8292846679688 L 0 687.8048706054688 L 0 640.9755859375 L 0 623.4146118164062" stroke="#ffffff" stroke-width="2" fill="none" stroke-linecap="round" stroke-linejoin="round"/><path d="M 194.8780517578125 383.4146423339844 L 193.41464233398438 383.4146423339844 L 193.41464233398438 384.8780517578125 L 184.6341552734375 392.19512939453125 L 165.60975646972656 408.2926940917969 L 145.12196350097656 422.92681884765625 L 105.6097640991211 452.19512939453125 L 52.92683792114258 488.7804870605469 L 29.512203216552734 507.80487060546875 L 9.024397850036621 525.3658447265625 L 0 545.8536376953125 L 0 559.0244140625 L 0 575.1219482421875 L 0 591.219482421875 L 0 601.4634399414062 L 0 610.243896484375 L 0 617.5609741210938 L 0 623.4146118164062 L 0 626.3414916992188 L 0 630.731689453125 L 0 638.0487670898438 L 0 642.4390258789062 L 0 643.9024658203125 L 0 646.8292846679688 L 0 651.219482421875 L 0 657.0731811523438 L 0 660 L 0 664.3902587890625 L 0 670.243896484375 L 0 674.6341552734375 L 0 677.5609741210938 L 0 680.48779296875 L 0 683.4146118164062 L 0 687.8048706054688 L 0 690.731689453125 L 0 693.6585083007812 L 0 698.0487670898438 L 0 702.4390258789062 L 0 705.3658447265625 L 0 708.2926635742188 L 0 712.6829223632812 L 0 718.5365600585938 L 0 720 L 0 720 L 0 720 L 0 718.5365600585938 L 0 717.0731811523438 L 0 712.6829223632812 L 0 702.4390258789062 L 0 677.5609741210938 L 0 652.6829223632812 L 0 621.9512329101562 L 0 576.5853881835938 L 0 560.48779296875 L 0 540 L 0 519.51220703125 L 0 485.8536682128906 L 0 472.68292236328125 L 0 463.9024353027344 L 0 450.7317199707031 L 0 440.48779296875 L 0 421.4634094238281 L 0 411.2195129394531 L 0 399.51220703125 L 0 389.2682800292969 L 0 370.243896484375 L 0 364.3902587890625 L 0 354.1463317871094 L 0 345.3658447265625 L 0 329.2682800292969 L 0 320.48779296875 L 0 311.7073059082031 L 0 300 L 0 289.756103515625 L 0 288.2926940917969 L 0 286.8292541503906 L 0 285.3658447265625 L 0 285.3658447265625 L 0 285.3658447265625 L 0 282.43902587890625 L 0 282.43902587890625 L 0 282.43902587890625 L 0 279.51220703125 L 0 278.04876708984375 L 0 275.1219482421875 L 0 273.6585388183594 L 0 273.6585388183594 L 0 270.7317199707031 L 0 269.2682800292969 L 0 267.80487060546875 L 0 267.80487060546875 L 0 264.8780517578125 L 0 264.8780517578125 L 0 261.95123291015625 L 1.707324504852295 260.48779296875 L 16.34147071838379 257.56097412109375 L 23.658544540405273 254.63414001464844 L 32.43903350830078 253.1707305908203 L 39.756103515625 251.7073211669922 L 50.00000762939453 248.78048706054688 L 66.09756469726562 245.85365295410156 L 70.4878158569336 244.39024353027344 L 76.34146881103516 242.9268341064453 L 80.7317123413086 241.46340942382812 L 90.97561645507812 240 L 95.36585998535156 238.53659057617188 L 99.756103515625 237.0731658935547 L 107.07318115234375 235.60975646972656 L 118.7804946899414 232.68292236328125 L 126.09756469726562 231.21951293945312 L 133.41464233398438 231.21951293945312 L 142.19512939453125 229.756103515625 L 148.0487823486328 229.756103515625 L 150.97561645507812 229.756103515625 L 153.90245056152344 228.2926788330078 L 155.36585998535156 228.2926788330078 L 161.21951293945312 226.8292694091797 L 165.60975646972656 226.8292694091797 L 172.9268341064453 225.36585998535156 L 190.48780822753906 223.90243530273438 L 199.26829528808594 223.90243530273438 L 212.43902587890625 222.43902587890625 L 225.60975646972656 222.43902587890625 L 241.7073211669922 220.97561645507812 L 253.41464233398438 219.51219177246094 L 260.7317199707031 218.0487823486328 L 270.9756164550781 218.0487823486328 L 281.2195129394531 216.5853729248047 L 303.1707458496094 215.1219482421875 L 316.3414611816406 213.65853881835938 L 336.82928466796875 210.73170471191406 L 377.80487060546875 207.80487060546875 L 393.9024353027344 206.34146118164062 L 414.3902587890625 204.8780517578125 L 434.8780517578125 201.9512176513672 L 468.5365905761719 196.09756469726562 L 489.0243835449219 188.78048706054688 L 509.51220703125 184.39024353027344 L 534.3902587890625 177.0731658935547 L 559.268310546875 169.756103515625 L 588.53662109375 158.0487823486328 L 604.6341552734375 152.19512939453125 L 622.1951293945312 146.34146118164062 L 633.9024658203125 140.48780822753906 L 641.2195434570312 136.09756469726562 L 650 133.1707305908203 L 650 133.1707305908203 L 650 131.7073211669922 L 652.9268188476562 128.78048706054688 L 654.3902587890625 127.31707000732422 L 658.780517578125 124.39024353027344 L 664.6341552734375 118.53658294677734 L 667.5609741210938 115.60975646972656 L 670.48779296875 114.1463394165039 L 671.9512329101562 112.68292999267578 L 671.9512329101562 111.21951293945312 L 673.4146118164062 108.29268646240234 L 674.8780517578125 106.82926940917969 L 676.3414916992188 105.36585235595703 L 677.8048706054688 102.43902587890625 L 677.8048706054688 102.43902587890625 L 679.268310546875 100.9756088256836 L 680.731689453125 98.04878234863281 L 682.1951293945312 95.1219482421875 L 683.6585693359375 92.19512176513672 L 685.1219482421875 90.73170471191406 L 685.1219482421875 87.80487823486328 L 686.5853881835938 86.34146118164062 L 688.0487670898438 83.41463470458984 L 688.0487670898438 81.95121765136719 L 689.51220703125 80.48780822753906 L 689.51220703125 79.0243911743164 L 690.9756469726562 77.56097412109375 L 692.4390258789062 74.63414764404297 L 692.4390258789062 74.63414764404297 L 692.4390258789062 74.63414764404297 L 693.9024658203125 71.70731353759766 L 695.3658447265625 70.24390411376953 L 695.3658447265625 70.24390411376953 L 695.3658447265625 68.78048706054688 L 696.8292846679688 67.31707000732422 L 698.2926635742188 64.39024353027344 L 698.2926635742188 62.92683029174805 L 699.756103515625 61.46341323852539 L 701.2195434570312 60 L 701.2195434570312 58.53658676147461 L 702.6829223632812 57.07316970825195 L 704.1463623046875 55.60975646972656 L 705.6097412109375 54.14634323120117 L 707.0731811523438 52.682926177978516 L 708.53662109375 51.219512939453125 L 710 49.75609588623047 L 712.9268188476562 46.82926940917969 L 714.3902587890625 45.36585235595703 L 715.8536376953125 43.90243911743164 L 717.3170776367188 40.975608825683594 L 720.243896484375 36.585365295410156 L 724.6341552734375 32.19512176513672 L 726.0975952148438 30.731706619262695 L 729.0244140625 27.80487823486328 L 734.8780517578125 23.414634704589844 L 736.3414916992188 21.95121955871582 L 737.8048706054688 20.487804412841797 L 739.268310546875 19.024391174316406 L 742.1951293945312 17.560976028442383 L 743.6585693359375 16.09756088256836 L 745.1219482421875 14.634146690368652 L 748.0487670898438 13.170731544494629 L 753.9024658203125 10.243902206420898 L 759.756103515625 7.317073345184326 L 764.1463623046875 4.390244007110596 L 768.53662109375 2.9268293380737305 L 774.3902587890625 0" stroke="#ffffff" stroke-width="2" fill="none" stroke-linecap="round" stroke-linejoin="round"/><path d="M 894.3902587890625 806.3414916992188 L 894.3902587890625 804.8780517578125 L 892.9268188476562 806.3414916992188 L 891.4634399414062 809.268310546875 L 887.0731811523438 815.1219482421875 L 881.2195434570312 822.4390258789062 L 860.731689453125 847.3170776367188 L 851.9512329101562 857.5609741210938 L 837.3170776367188 873.6585083007812 L 803.6585693359375 919.0244140625 L 789.0244140625 938.0487670898438 L 770 962.9268188476562 L 748.0487670898438 998.0487670898438 L 711.4634399414062 1046.3414306640625 L 686.5853881835938 1082.9268798828125 L 676.3414916992188 1097.56103515625 L 669.0244140625 1112.195068359375 L 661.7073364257812 1123.9024658203125 L 654.3902587890625 1134.1463623046875 L 652.9268188476562 1135.6097412109375 L 651.4634399414062 1137.0731201171875 L 650 1138.53662109375 L 650 1138.53662109375 L 648.53662109375 1138.53662109375 L 647.0731811523438 1138.53662109375 L 644.1463623046875 1137.0731201171875 L 639.756103515625 1135.6097412109375 L 617.8048706054688 1131.219482421875 L 597.3170776367188 1126.8292236328125 L 566.5853881835938 1118.048828125 L 531.4634399414062 1109.268310546875 L 449.51220703125 1090.243896484375 L 408.5365905761719 1081.46337890625 L 354.3902587890625 1069.756103515625 L 276.82928466796875 1053.6585693359375 L 159.756103515625 1022.9268188476562 L 98.29269409179688 1008.2926635742188 L 44.14634704589844 993.6585083007812 L 0 970.243896484375 L 0 952.6829223632812 L 0 945.3658447265625 L 0 940.9755859375 L 0 936.5853881835938 L 0 935.1219482421875 L 0 933.6585083007812 L 0 933.6585083007812 L 0 932.1951293945312 L 0 930.731689453125 L 0 929.268310546875 L 0 924.8780517578125 L 0 920.48779296875 L 0 916.0975341796875 L 0 911.7073364257812 L 0 905.8536376953125 L 0 898.5365600585938 L 0 894.1463623046875 L 0 888.2926635742188 L 0 886.8292846679688 L 0 885.3658447265625 L 0 885.3658447265625 L 0 885.3658447265625 L 0 883.9024658203125 L 0 883.9024658203125 L 0 882.4390258789062 L 0 882.4390258789062 L 0 880.9755859375 L 0 880.9755859375 L 0 878.0487670898438 L 0 875.1219482421875 L 0 873.6585083007812 L 0 872.1951293945312 L 0 872.1951293945312 L 0 872.1951293945312 L 0 872.1951293945312 L 0 870.731689453125 L 0 870.731689453125 L 0 870.731689453125 L 0 870.731689453125 L 0 870.731689453125 L 0 869.268310546875 L 0 869.268310546875 L 0 866.3414916992188" stroke="#ffffff" stroke-width="2" fill="none" stroke-linecap="round" stroke-linejoin="round"/><path d="M 0 585.3658447265625 L 0 586.8292846679688 L 0 586.8292846679688 L 0 586.8292846679688 L 0 586.8292846679688 L 0 586.8292846679688 L 0 586.8292846679688 L 0 586.8292846679688 L 0 586.8292846679688 L 0 586.8292846679688 L 0 586.8292846679688 L 0 585.3658447265625 L 0 585.3658447265625 L 1.707324504852295 585.3658447265625 L 4.634153842926025 585.3658447265625 L 7.560983180999756 585.3658447265625 L 9.024397850036621 585.3658447265625 L 11.951227188110352 583.9024658203125 L 14.878056526184082 583.9024658203125 L 17.804885864257812 583.9024658203125 L 20.731714248657227 583.9024658203125 L 23.658544540405273 583.9024658203125 L 26.585372924804688 583.9024658203125 L 29.512203216552734 583.9024658203125 L 32.43903350830078 582.4390258789062 L 35.36585998535156 582.4390258789062 L 38.29269027709961 582.4390258789062 L 38.29269027709961 582.4390258789062 L 36.82927703857422 582.4390258789062 L 35.36585998535156 582.4390258789062 L 32.43903350830078 582.4390258789062 L 17.804885864257812 585.3658447265625 L 6.097568511962891 586.8292846679688 L 0 589.756103515625 L 0 591.219482421875 L 0 597.0731811523438 L 0 598.5365600585938 L 0 601.4634399414062 L 0 602.9268188476562 L 0 605.8536376953125 L 0 605.8536376953125 L 0 605.8536376953125 L 0 605.8536376953125 L 0 605.8536376953125 L 0 605.8536376953125 L 0 605.8536376953125 L 0 607.3170776367188 L 0 607.3170776367188 L 0 607.3170776367188 L 0 607.3170776367188 L 0 607.3170776367188 L 0 607.3170776367188 L 0 608.780517578125 L 0 608.780517578125 L 0 608.780517578125 L 0 608.780517578125 L 0 608.780517578125 L 0 610.243896484375 L 0 610.243896484375 L 0 610.243896484375 L 0 610.243896484375 L 0 610.243896484375 L 0 611.7073364257812 L 0 611.7073364257812 L 0 611.7073364257812 L 0 611.7073364257812 L 0 611.7073364257812 L 0 611.7073364257812 L 0 610.243896484375 L 0 610.243896484375 L 0 610.243896484375 L 0 610.243896484375 L 0 608.780517578125 L 0 607.3170776367188 L 0 607.3170776367188 L 0 605.8536376953125 L 0 604.3902587890625 L 0 602.9268188476562 L 0 600 L 0 598.5365600585938 L 0 598.5365600585938" stroke="#ffffff" stroke-width="2" fill="none" stroke-linecap="round" stroke-linejoin="round"/><text x="1299.756103515625" y="364.3902587890625" fill="#ffffff" font-size="24" font-family="ui-monospace, SFMono-Regular, Menlo, Monaco, Consolas, 'Liberation Mono', 'Courier New', monospace"/></svg>