<?xml version="1.0" standalone="no"?>
<!DOCTYPE svg PUBLIC "-//W3C//DTD SVG 20010904//EN"
 "http://www.w3.org/TR/2001/REC-SVG-20010904/DTD/svg10.dtd">
<svg version="1.0" xmlns="http://www.w3.org/2000/svg"
 width="2622.000000pt" height="1402.000000pt" viewBox="0 0 2622.000000 1402.000000"
 preserveAspectRatio="xMidYMid meet">

<g transform="translate(0.000000,1402.000000) scale(0.100000,-0.100000)"
fill="#000000" stroke="none">
<path d="M405 13615 c-100 -35 -122 -157 -43 -231 18 -17 61 -48 95 -68 68
-41 113 -87 113 -117 0 -65 -65 -107 -134 -88 -36 10 -85 58 -112 110 -9 17
-19 27 -24 23 -14 -14 11 -174 27 -174 7 0 13 5 13 11 0 8 13 9 43 4 23 -5 72
-9 109 -9 52 -1 72 3 94 20 48 35 66 67 66 117 0 77 -23 104 -172 200 -73 48
-96 80 -86 121 9 38 65 61 110 46 40 -13 82 -55 97 -98 15 -44 42 -43 35 1 -3
17 -8 58 -11 90 -7 58 -17 70 -33 41 -8 -15 -14 -15 -74 0 -75 19 -63 19 -113
1z"/>
<path d="M1488 13613 c-60 -16 -77 -33 -33 -33 39 0 45 -32 44 -233 -1 -202
-5 -227 -37 -243 -43 -21 -35 -24 66 -24 61 0 102 4 102 10 0 6 -8 10 -18 10
-40 0 -42 15 -42 277 0 196 -3 253 -12 252 -7 -1 -39 -8 -70 -16z"/>
<path d="M2271 13614 c-52 -16 -75 -34 -45 -34 34 0 44 -21 44 -87 0 -58 -10
-78 -25 -53 -9 15 -92 12 -124 -5 -69 -35 -107 -117 -99 -213 10 -114 115
-182 208 -133 l40 21 0 -21 c0 -16 4 -19 18 -14 9 4 36 14 59 22 47 16 65 33
36 33 -41 0 -43 15 -43 262 0 184 -3 238 -12 237 -7 -1 -33 -7 -57 -15z m-30
-213 c22 -18 24 -28 27 -129 4 -103 2 -111 -19 -131 -27 -25 -66 -27 -97 -5
-68 48 -76 195 -14 267 20 23 74 22 103 -2z"/>
<path d="M5438 13612 c-54 -19 -70 -32 -42 -32 34 0 44 -21 44 -87 0 -59 -10
-78 -26 -52 -4 7 -29 10 -67 7 -55 -4 -63 -8 -98 -45 -44 -48 -63 -107 -57
-181 10 -114 115 -182 208 -133 l40 21 0 -21 c0 -16 4 -19 18 -14 9 4 36 14
59 22 47 16 65 33 36 33 -41 0 -43 15 -43 262 0 184 -3 238 -12 237 -7 0 -34
-8 -60 -17z m-27 -211 c22 -18 24 -28 27 -129 4 -103 2 -111 -19 -131 -27 -25
-66 -27 -97 -5 -68 48 -76 195 -14 267 20 23 74 22 103 -2z"/>
<path d="M8820 13615 c-16 -19 -5 -61 17 -67 25 -7 42 1 53 23 23 43 -39 82
-70 44z"/>
<path d="M18758 13612 c-61 -17 -76 -32 -33 -32 41 0 47 -34 43 -251 -3 -205
-8 -229 -49 -229 -11 0 -19 -4 -19 -10 0 -6 40 -10 100 -10 60 0 100 4 100 10
0 6 -8 10 -18 10 -40 0 -42 15 -42 277 0 196 -3 253 -12 252 -7 0 -39 -8 -70
-17z"/>
<path d="M19210 13615 c-16 -19 -5 -61 17 -67 25 -7 42 1 53 23 23 43 -39 82
-70 44z"/>
<path d="M21178 13612 c-54 -19 -70 -32 -42 -32 34 0 44 -21 44 -88 0 -57 -2
-63 -17 -56 -10 4 -35 9 -56 12 -105 12 -186 -92 -175 -226 10 -114 115 -182
208 -133 l40 21 0 -21 c0 -16 4 -19 18 -14 9 4 36 14 59 22 47 16 65 33 36 33
-41 0 -43 15 -43 262 0 184 -3 238 -12 237 -7 0 -34 -8 -60 -17z m-27 -211
c22 -18 24 -28 27 -129 4 -103 2 -111 -19 -131 -27 -25 -66 -27 -97 -5 -68 48
-76 195 -14 267 20 23 74 22 103 -2z"/>
<path d="M21782 13613 c-6 -10 -49 -110 -97 -223 -100 -236 -122 -278 -147
-286 -41 -13 -13 -24 62 -24 75 0 105 11 60 23 -31 8 -34 33 -10 92 l22 55
103 0 102 0 22 -51 c28 -68 27 -87 -4 -95 -54 -14 -20 -24 80 -24 58 0 105 3
105 8 0 4 -12 14 -28 23 -22 12 -48 63 -136 262 -59 136 -112 249 -117 252 -4
3 -12 -2 -17 -12z m38 -222 c22 -51 40 -94 40 -97 0 -2 -38 -4 -85 -4 -47 0
-85 2 -85 4 0 2 14 36 30 75 17 40 35 83 41 98 5 14 12 24 14 21 3 -3 23 -46
45 -97z"/>
<path d="M23580 13615 c-16 -19 -5 -61 17 -67 25 -7 42 1 53 23 23 43 -39 82
-70 44z"/>
<path d="M2610 13607 c0 -11 8 -17 25 -17 41 0 46 -24 43 -252 l-3 -213 -32
-15 c-18 -8 -33 -19 -33 -24 0 -4 75 -6 168 -4 148 3 173 6 219 27 70 31 118
86 139 157 32 110 -1 229 -79 285 -62 45 -126 59 -294 66 -138 6 -153 4 -153
-10z m329 -55 c51 -26 97 -92 110 -154 33 -156 -66 -283 -214 -276 l-60 3 -3
215 c-1 118 0 221 3 229 7 19 116 8 164 -17z"/>
<path d="M4078 13615 c-14 -15 -8 -22 21 -28 18 -4 31 -14 35 -29 3 -13 6
-112 6 -220 0 -185 -1 -199 -20 -218 -11 -11 -27 -20 -35 -20 -8 0 -15 -4 -15
-10 0 -6 45 -10 115 -10 116 0 142 8 83 25 -39 12 -46 31 -47 131 l-1 71 78 5
c112 7 172 44 192 119 8 28 7 48 -4 79 -26 77 -82 99 -266 107 -74 3 -138 2
-142 -2z m244 -45 c80 -22 106 -119 49 -182 -24 -27 -36 -32 -90 -36 l-61 -4
0 100 c0 55 3 107 6 116 7 18 43 20 96 6z"/>
<path d="M6921 13382 c-94 -221 -127 -282 -151 -282 -6 0 -10 -4 -10 -10 0 -6
33 -10 80 -10 75 0 105 11 60 23 -31 8 -34 33 -10 92 l22 55 103 0 102 0 22
-51 c28 -68 27 -87 -4 -95 -54 -14 -20 -24 80 -24 58 0 105 3 105 8 0 4 -13
14 -28 23 -23 13 -47 60 -134 260 -60 136 -113 245 -121 247 -10 2 -45 -69
-116 -236z m139 8 c22 -52 40 -95 40 -97 0 -2 -38 -3 -85 -3 -47 0 -85 2 -85
4 0 2 14 36 30 75 17 40 35 83 41 98 5 14 12 24 14 21 3 -3 23 -47 45 -98z"/>
<path d="M17590 13604 c0 -8 10 -14 24 -14 44 0 47 -14 44 -246 l-3 -219 -32
-15 c-18 -8 -33 -18 -33 -22 0 -5 43 -8 95 -8 52 0 95 3 95 8 0 4 -15 14 -33
22 l-32 15 -2 185 -3 185 93 -204 c52 -113 98 -206 104 -208 6 -2 52 90 103
204 50 114 96 212 101 218 11 11 11 -327 0 -365 -4 -16 -17 -28 -39 -34 -60
-17 -32 -26 83 -26 70 0 115 4 115 10 0 6 -7 10 -15 10 -8 0 -24 9 -35 20 -19
19 -20 33 -20 223 0 216 6 247 51 247 10 0 19 7 19 15 0 13 -13 15 -81 13
l-81 -3 -79 -180 c-43 -99 -82 -189 -87 -199 -6 -15 -28 25 -99 180 l-90 199
-82 1 c-63 1 -81 -1 -81 -12z"/>
<path d="M19635 13610 c-3 -6 2 -13 12 -16 49 -15 48 -9 51 -230 1 -115 0
-219 -3 -231 -3 -14 -16 -24 -35 -28 -63 -14 -25 -25 85 -25 63 0 115 3 115 8
0 4 -15 14 -33 22 l-32 15 -3 103 -3 102 121 0 120 0 0 -84 c0 -101 -10 -133
-45 -142 -55 -14 -19 -24 85 -24 104 0 140 10 85 24 -15 4 -30 18 -35 32 -6
14 -10 112 -10 217 0 205 7 237 51 237 10 0 19 7 19 15 0 12 -19 15 -110 15
-87 0 -110 -3 -110 -14 0 -7 13 -16 29 -19 36 -7 44 -36 39 -142 l-3 -70 -117
-3 -118 -3 0 95 c0 100 10 126 51 126 10 0 19 7 19 15 0 12 -19 15 -109 15
-63 0 -112 -4 -116 -10z"/>
<path d="M3642 13494 c-23 -30 -46 -54 -52 -54 -5 0 -10 -7 -10 -15 0 -8 9
-15 20 -15 19 0 20 -7 20 -122 0 -151 10 -191 49 -208 36 -14 67 -6 103 28 34
31 27 46 -11 24 -24 -14 -32 -14 -45 -3 -13 11 -16 37 -16 147 l0 133 38 3
c25 2 37 8 37 18 0 10 -12 16 -37 18 -38 3 -38 4 -38 47 0 24 -4 46 -8 49 -4
2 -27 -20 -50 -50z"/>
<path d="M6402 13494 c-23 -30 -46 -54 -52 -54 -5 0 -10 -7 -10 -15 0 -8 9
-15 20 -15 19 0 20 -7 20 -122 0 -151 10 -191 49 -208 36 -14 67 -6 103 28 34
31 27 46 -11 24 -24 -14 -32 -14 -45 -3 -13 11 -16 37 -16 147 l0 133 38 3
c25 2 37 8 37 18 0 10 -12 16 -37 18 -38 3 -38 4 -38 47 0 24 -4 46 -8 49 -4
2 -27 -20 -50 -50z"/>
<path d="M7410 13515 c-11 -19 -34 -45 -51 -59 -34 -29 -37 -46 -9 -46 19 0
20 -7 20 -122 0 -151 10 -191 49 -208 36 -14 67 -6 103 28 34 31 27 46 -11 24
-24 -14 -32 -14 -45 -3 -13 11 -16 37 -16 147 l0 133 38 3 c25 2 37 8 37 18 0
10 -12 16 -37 18 -38 3 -38 4 -38 47 0 57 -13 64 -40 20z"/>
<path d="M7640 13515 c-11 -19 -34 -45 -51 -59 -34 -29 -37 -46 -9 -46 19 0
20 -7 20 -122 0 -145 10 -190 46 -206 39 -19 61 -14 99 19 40 36 38 56 -4 31
-24 -14 -32 -14 -45 -3 -13 11 -16 37 -16 147 l0 133 38 3 c25 2 37 8 37 18 0
10 -12 16 -37 18 -38 3 -38 4 -38 47 0 57 -13 64 -40 20z"/>
<path d="M8610 13515 c-11 -19 -34 -45 -51 -59 -34 -29 -37 -46 -9 -46 19 0
20 -7 20 -122 0 -151 10 -191 49 -208 36 -14 67 -6 103 28 34 31 27 46 -11 24
-24 -14 -32 -14 -45 -3 -13 11 -16 37 -16 147 l0 133 38 3 c25 2 37 8 37 18 0
10 -12 16 -37 18 -38 3 -38 4 -38 47 0 57 -13 64 -40 20z"/>
<path d="M19000 13515 c-11 -19 -34 -45 -51 -59 -33 -28 -37 -46 -10 -46 17 0
19 -11 23 -142 3 -79 8 -150 12 -159 8 -19 48 -39 76 -39 23 0 92 58 85 70 -3
5 -18 1 -34 -8 -24 -14 -32 -14 -45 -3 -13 11 -16 37 -16 147 l0 133 38 3 c25
2 37 8 37 18 0 10 -12 16 -37 18 -38 3 -38 4 -38 47 0 57 -13 64 -40 20z"/>
<path d="M22162 13494 c-23 -30 -46 -54 -52 -54 -5 0 -10 -7 -10 -15 0 -8 8
-15 19 -15 17 0 19 -11 23 -142 3 -79 8 -150 12 -160 10 -23 60 -41 88 -33 28
9 79 55 72 66 -2 4 -17 0 -33 -9 -24 -14 -32 -14 -45 -3 -13 11 -16 37 -16
147 l0 133 38 3 c25 2 37 8 37 18 0 10 -12 16 -37 18 -38 3 -38 4 -38 47 0 24
-4 46 -8 49 -4 2 -27 -20 -50 -50z"/>
<path d="M22382 13494 c-23 -30 -46 -54 -52 -54 -5 0 -10 -7 -10 -15 0 -8 9
-15 20 -15 19 0 20 -7 20 -122 0 -151 10 -191 49 -208 36 -14 67 -6 103 28 34
31 27 46 -11 24 -24 -14 -32 -14 -45 -3 -13 11 -16 37 -16 147 l0 133 38 3
c25 2 37 8 37 18 0 10 -12 16 -37 18 -38 3 -38 4 -38 47 0 24 -4 46 -8 49 -4
2 -27 -20 -50 -50z"/>
<path d="M23362 13494 c-23 -30 -46 -54 -52 -54 -5 0 -10 -7 -10 -15 0 -8 8
-15 19 -15 17 0 19 -11 23 -142 3 -79 8 -150 12 -160 10 -23 60 -41 88 -33 28
9 79 55 72 66 -2 4 -17 0 -33 -9 -24 -14 -32 -14 -45 -3 -13 11 -16 37 -16
147 l0 133 38 3 c25 2 37 8 37 18 0 10 -12 16 -37 18 -38 3 -38 4 -38 47 0 24
-4 46 -8 49 -4 2 -27 -20 -50 -50z"/>
<path d="M825 13431 c-68 -42 -95 -91 -95 -175 0 -134 98 -215 208 -171 41 17
102 84 102 112 0 20 -8 16 -46 -22 -29 -29 -42 -35 -77 -35 -72 1 -117 55
-118 143 -1 85 36 136 99 137 28 0 34 -5 48 -40 17 -43 46 -59 70 -39 24 20
13 61 -25 86 -43 29 -123 31 -166 4z"/>
<path d="M1153 13433 c-28 -14 -53 -49 -53 -73 0 -11 29 -40 40 -40 18 0 40
33 40 60 0 59 79 66 99 9 20 -58 16 -64 -64 -99 -43 -19 -87 -46 -100 -62 -31
-37 -33 -95 -6 -129 27 -33 93 -33 140 1 24 16 36 20 39 12 15 -45 67 -54 108
-19 30 26 26 54 -5 37 -10 -5 -21 -6 -25 -3 -3 3 -6 56 -7 117 0 126 -13 175
-49 193 -34 17 -118 15 -157 -4z m137 -203 c0 -47 -4 -64 -20 -80 -28 -28 -76
-26 -95 4 -24 37 -1 85 56 113 24 13 47 23 52 23 4 0 7 -27 7 -60z"/>
<path d="M1739 13427 c-98 -65 -108 -270 -16 -330 81 -53 197 -15 246 81 21
40 0 46 -31 8 -75 -91 -190 -51 -213 76 l-7 37 123 3 124 3 -3 30 c-5 41 -29
79 -62 99 -42 24 -120 21 -161 -7z m101 -17 c19 -10 43 -64 33 -74 -4 -3 -37
-6 -75 -6 -62 0 -68 2 -68 20 0 27 43 70 70 70 12 0 30 -4 40 -10z"/>
<path d="M3278 13430 c-134 -71 -105 -310 43 -350 65 -18 117 -4 165 44 54 53
71 110 56 183 -13 63 -35 95 -83 122 -48 27 -130 27 -181 1z m146 -40 c67 -81
59 -238 -15 -279 -41 -23 -86 1 -111 57 -22 48 -34 137 -25 174 20 80 102 106
151 48z"/>
<path d="M4553 13428 c-56 -22 -68 -38 -29 -38 13 0 27 -7 30 -16 3 -9 6 -67
6 -129 0 -117 -9 -145 -46 -145 -8 0 -14 -4 -14 -10 0 -6 40 -10 100 -10 60 0
100 4 100 10 0 6 -9 10 -19 10 -42 0 -51 25 -51 140 0 90 3 111 19 131 17 22
21 22 59 10 46 -15 62 -9 62 23 0 53 -64 63 -111 17 l-29 -29 0 29 c0 34 -7
35 -77 7z"/>
<path d="M4875 13426 c-48 -29 -73 -69 -81 -130 -19 -134 84 -242 210 -220 55
9 119 72 136 134 15 53 2 135 -27 174 -50 67 -163 87 -238 42z m149 -36 c67
-81 59 -238 -15 -279 -41 -23 -86 1 -111 57 -22 48 -34 137 -25 174 20 80 102
106 151 48z"/>
<path d="M5577 13444 c-4 -4 3 -12 16 -18 21 -11 22 -19 27 -147 4 -107 9
-141 23 -162 35 -54 102 -59 164 -11 l33 25 0 -30 0 -30 60 21 c33 11 60 22
60 24 0 3 -11 9 -25 14 -24 9 -24 10 -27 162 l-3 153 -59 3 c-68 4 -93 -10
-47 -26 l31 -11 0 -125 c0 -118 -1 -126 -22 -140 -27 -19 -84 -21 -95 -3 -4 6
-10 77 -13 157 l-5 145 -55 3 c-31 2 -59 0 -63 -4z"/>
<path d="M6085 13431 c-68 -42 -95 -91 -95 -175 0 -66 20 -116 59 -149 68 -57
175 -37 225 42 43 68 34 80 -20 26 -29 -29 -42 -35 -78 -35 -73 0 -117 57
-118 151 0 81 37 129 102 129 27 0 33 -5 50 -45 20 -47 46 -59 70 -31 19 24 7
59 -29 83 -43 29 -122 31 -166 4z"/>
<path d="M7869 13427 c-74 -49 -102 -180 -59 -275 39 -86 160 -106 236 -40 40
35 68 83 58 99 -4 6 -18 -4 -35 -24 -41 -50 -88 -64 -136 -40 -42 20 -68 59
-78 115 l-7 37 123 3 124 3 -3 30 c-5 41 -36 89 -67 103 -43 20 -118 15 -156
-11z m101 -17 c19 -10 43 -64 33 -74 -4 -3 -37 -6 -75 -6 -62 0 -68 2 -68 20
0 27 43 70 70 70 12 0 30 -4 40 -10z"/>
<path d="M8178 13433 c-52 -15 -62 -30 -25 -35 22 -3 22 -5 22 -143 0 -136 -1
-140 -22 -150 -42 -18 -24 -25 67 -25 53 0 90 4 90 10 0 6 -9 10 -20 10 -30 0
-40 38 -40 155 0 103 0 104 29 124 38 27 76 27 95 -1 12 -17 16 -49 16 -131 0
-110 -9 -147 -35 -147 -8 0 -15 -4 -15 -10 0 -6 35 -10 85 -10 50 0 85 4 85
10 0 6 -6 10 -14 10 -26 0 -31 23 -36 162 -5 127 -7 138 -29 162 -34 36 -94
36 -142 0 l-34 -25 -3 25 c-4 29 -8 30 -74 9z"/>
<path d="M8813 13428 c-59 -23 -68 -38 -23 -38 l30 0 0 -133 c0 -137 -5 -157
-42 -157 -10 0 -18 -4 -18 -10 0 -6 41 -10 102 -10 101 0 109 3 66 24 -22 11
-23 16 -26 179 -3 190 2 181 -89 145z"/>
<path d="M9078 13430 c-134 -71 -105 -310 43 -350 65 -18 117 -4 165 44 54 53
71 110 56 183 -13 63 -35 95 -83 122 -48 27 -130 27 -181 1z m146 -40 c67 -81
59 -238 -15 -279 -41 -23 -86 1 -111 57 -22 48 -34 137 -25 174 20 80 102 106
151 48z"/>
<path d="M9428 13433 c-52 -15 -62 -30 -25 -35 22 -3 22 -5 22 -143 0 -136 -1
-140 -22 -150 -42 -18 -24 -25 67 -25 53 0 90 4 90 10 0 6 -9 10 -20 10 -31 0
-40 32 -40 149 l0 110 29 20 c38 27 76 27 95 -1 12 -17 16 -49 16 -131 0 -110
-9 -147 -35 -147 -8 0 -15 -4 -15 -10 0 -6 35 -10 85 -10 50 0 85 4 85 10 0 6
-7 10 -15 10 -27 0 -35 38 -35 164 0 119 -1 126 -26 155 -34 41 -94 43 -145 5
l-34 -25 -3 25 c-4 29 -8 30 -74 9z"/>
<path d="M18297 13444 c-4 -4 3 -12 16 -18 21 -11 22 -19 27 -147 4 -107 9
-141 23 -162 35 -54 102 -59 164 -11 l33 25 0 -30 0 -30 60 21 c33 11 60 22
60 24 0 3 -11 9 -25 14 -24 9 -24 10 -27 162 l-3 153 -59 3 c-68 4 -93 -10
-47 -26 l31 -11 0 -125 c0 -118 -1 -126 -22 -140 -27 -19 -84 -21 -95 -3 -4 6
-10 77 -13 157 l-5 145 -55 3 c-31 2 -59 0 -63 -4z"/>
<path d="M19203 13428 c-59 -23 -68 -38 -23 -38 l30 0 0 -133 c0 -137 -5 -157
-42 -157 -10 0 -18 -4 -18 -10 0 -6 41 -10 102 -10 101 0 109 3 66 24 -22 11
-23 16 -26 179 -3 190 2 181 -89 145z"/>
<path d="M20299 13427 c-71 -47 -101 -172 -63 -267 50 -124 226 -113 293 18
21 40 0 46 -31 8 -75 -91 -190 -51 -213 76 l-7 37 123 3 124 3 -3 30 c-5 41
-29 79 -62 99 -42 24 -120 21 -161 -7z m101 -17 c19 -10 43 -64 33 -74 -4 -3
-37 -6 -75 -6 -62 0 -68 2 -68 20 0 27 43 70 70 70 12 0 30 -4 40 -10z"/>
<path d="M20653 13430 c-30 -18 -53 -48 -53 -69 0 -12 28 -41 40 -41 18 0 40
33 40 60 0 61 81 64 100 4 6 -19 10 -41 8 -50 -2 -8 -34 -28 -73 -45 -84 -35
-125 -75 -125 -123 0 -49 8 -65 42 -82 37 -19 85 -12 124 18 19 16 29 18 32
10 15 -45 67 -54 108 -19 31 27 26 47 -11 39 l-25 -4 -1 113 c0 129 -13 178
-49 196 -38 19 -120 16 -157 -7z m137 -200 c0 -47 -4 -64 -20 -80 -28 -28 -76
-26 -95 4 -25 37 0 86 56 114 24 11 47 21 52 22 4 0 7 -27 7 -60z"/>
<path d="M22629 13427 c-74 -49 -102 -180 -59 -275 39 -86 160 -106 236 -40
40 35 68 83 58 99 -4 6 -18 -4 -35 -24 -41 -50 -88 -64 -136 -40 -42 20 -68
59 -78 115 l-7 37 123 3 124 3 -3 30 c-5 41 -36 89 -67 103 -43 20 -118 15
-156 -11z m101 -17 c19 -10 43 -64 33 -74 -4 -3 -37 -6 -75 -6 -55 0 -68 3
-68 16 0 52 63 89 110 64z"/>
<path d="M22948 13433 c-52 -15 -62 -30 -25 -35 22 -3 22 -5 22 -143 0 -136
-1 -140 -22 -150 -42 -18 -24 -25 67 -25 53 0 90 4 90 10 0 6 -9 10 -20 10
-31 0 -40 32 -40 149 l0 110 29 20 c38 27 76 27 95 -1 12 -17 16 -49 16 -131
0 -110 -9 -147 -35 -147 -8 0 -15 -4 -15 -10 0 -6 35 -10 85 -10 50 0 85 4 85
10 0 6 -7 10 -15 10 -27 0 -35 38 -35 164 0 119 -1 126 -26 155 -34 41 -94 43
-145 5 l-34 -25 -3 25 c-4 29 -8 30 -74 9z"/>
<path d="M23573 13428 c-59 -23 -68 -38 -23 -38 l30 0 0 -133 c0 -137 -5 -157
-42 -157 -10 0 -18 -4 -18 -10 0 -6 41 -10 102 -10 101 0 109 3 66 24 -22 11
-23 16 -26 179 -3 190 2 181 -89 145z"/>
<path d="M23835 13426 c-48 -29 -73 -69 -81 -130 -19 -134 84 -242 210 -220
55 9 119 72 136 134 15 53 2 135 -27 174 -50 67 -163 87 -238 42z m149 -36
c67 -81 59 -238 -15 -279 -41 -23 -86 1 -111 57 -22 48 -34 137 -25 174 20 80
102 106 151 48z"/>
<path d="M24188 13433 c-52 -15 -62 -30 -25 -35 22 -3 22 -5 22 -143 0 -136
-1 -140 -22 -150 -42 -18 -24 -25 67 -25 53 0 90 4 90 10 0 6 -9 10 -20 10
-31 0 -40 32 -40 149 l0 110 29 20 c38 27 76 27 95 -1 12 -17 16 -49 16 -131
0 -110 -9 -147 -35 -147 -8 0 -15 -4 -15 -10 0 -6 35 -10 85 -10 50 0 85 4 85
10 0 6 -7 10 -15 10 -27 0 -35 38 -35 164 0 119 -1 126 -26 155 -34 41 -94 43
-145 5 l-34 -25 -3 25 c-4 29 -8 30 -74 9z"/>
<path d="M3820 13263 l0 -28 100 3 c98 3 100 4 100 28 0 24 -1 24 -100 24
l-100 0 0 -27z"/>
<path d="M19390 13263 l0 -28 97 2 c97 1 98 1 101 27 l3 26 -100 0 -101 0 0
-27z"/>
<path d="M20280 12693 c-17 -43 -47 -114 -66 -159 -44 -104 -43 -111 2 -84 21
12 41 17 46 12 4 -4 7 -98 6 -208 l-3 -199 -455 -5 -455 -5 -48 -30 c-57 -36
-104 -102 -112 -159 -3 -22 -5 -216 -3 -431 l3 -390 27 -46 c29 -50 85 -94
139 -109 20 -6 220 -10 481 -10 247 0 448 -2 448 -5 0 -7 -44 -121 -83 -212
-20 -46 -31 -83 -25 -83 5 0 23 9 39 21 16 11 33 17 39 14 6 -4 10 -107 10
-280 l0 -274 -592 -3 c-588 -3 -593 -3 -634 -25 -58 -31 -101 -84 -119 -147
-14 -47 -16 -112 -13 -443 3 -385 3 -388 26 -432 29 -54 65 -88 117 -112 38
-18 96 -19 1263 -19 l1223 0 42 21 c55 28 84 55 110 104 21 39 22 52 25 444 3
454 2 468 -66 534 -20 20 -57 45 -82 56 -44 20 -64 21 -622 21 l-578 0 0 280
c0 154 3 280 6 280 4 0 22 -10 41 -21 19 -12 36 -20 38 -18 2 3 -23 69 -56
148 -32 79 -59 146 -59 148 0 1 210 3 468 3 448 0 469 1 512 21 55 25 95 62
123 114 22 39 22 49 22 455 0 409 0 416 -22 456 -28 53 -91 107 -142 122 -26
8 -175 12 -485 12 l-446 0 0 210 c0 116 2 210 5 210 2 0 19 -9 37 -20 58 -35
60 -44 -36 190 -26 63 -51 119 -56 123 -4 5 -22 -27 -40 -70z m1017 -763 c18
-10 41 -37 53 -59 19 -38 20 -57 20 -413 -1 -410 -2 -417 -63 -462 -28 -21
-33 -21 -970 -24 -926 -2 -943 -2 -975 18 -18 11 -41 34 -52 52 -19 31 -20 51
-20 418 0 367 1 387 20 418 11 18 34 41 52 52 32 20 53 20 968 20 911 0 936
-1 967 -20z m243 -1998 c19 -9 45 -32 57 -51 23 -34 23 -35 23 -418 0 -420 -1
-426 -58 -468 -27 -20 -45 -20 -1238 -23 l-1211 -2 -34 23 c-68 45 -69 49 -69
462 0 345 2 373 20 413 15 33 29 47 62 62 42 19 76 20 1228 20 1108 0 1187 -1
1220 -18z"/>
<path d="M19592 11483 l3 -218 140 0 c125 0 140 2 143 18 3 15 -8 17 -122 17
l-126 0 0 200 c0 194 -1 200 -20 200 -20 0 -20 -5 -18 -217z"/>
<path d="M19912 11673 c2 -17 9 -28 18 -28 9 0 16 11 18 28 3 22 -1 27 -18 27
-17 0 -21 -5 -18 -27z"/>
<path d="M20116 11575 c-16 -8 -35 -23 -42 -33 -12 -15 -13 -14 -14 11 0 17
-5 27 -15 27 -13 0 -15 -22 -13 -157 2 -114 6 -157 16 -161 9 -3 12 21 12 97
0 151 23 191 108 191 60 0 66 -14 72 -159 4 -103 8 -126 20 -126 13 0 15 22
15 137 0 125 -2 139 -20 158 -28 27 -101 36 -139 15z"/>
<path d="M20431 11573 c-19 -10 -44 -30 -55 -45 -24 -34 -33 -131 -16 -182 23
-70 103 -110 174 -86 40 13 86 62 86 91 0 25 -27 25 -35 -1 -15 -49 -96 -76
-146 -50 -22 12 -49 61 -49 89 0 19 7 21 118 23 l117 3 -2 37 c-6 105 -105
167 -192 121z m110 -33 c19 -10 49 -59 49 -80 0 -6 -37 -10 -100 -10 -95 0
-100 1 -100 21 0 11 13 34 29 50 31 31 83 39 122 19z"/>
<path d="M20734 11575 c-29 -15 -64 -61 -64 -84 0 -6 9 -11 20 -11 11 0 20 7
20 15 0 30 38 55 85 55 49 0 85 -25 85 -59 0 -29 -24 -42 -93 -51 -97 -12
-127 -35 -127 -98 0 -87 113 -120 190 -55 23 19 30 21 30 9 0 -17 29 -36 54
-36 20 0 21 26 2 33 -11 4 -15 33 -18 121 -3 110 -4 117 -30 142 -33 34 -107
43 -154 19z m146 -176 c0 -17 -7 -44 -17 -59 -42 -73 -163 -65 -163 10 0 37
19 51 93 65 89 18 87 18 87 -16z"/>
<path d="M21002 11428 c3 -137 5 -163 18 -163 12 0 16 18 18 90 1 50 5 104 7
122 7 37 47 73 81 73 17 0 24 6 24 20 0 11 -4 20 -9 20 -21 0 -67 -22 -88 -42
l-23 -21 0 31 c0 22 -5 32 -15 32 -13 0 -15 -22 -13 -162z"/>
<path d="M19912 11423 c3 -133 5 -158 18 -158 13 0 15 25 18 158 2 153 2 157
-18 157 -20 0 -20 -4 -18 -157z"/>
<path d="M19495 9695 c-45 -23 -91 -80 -105 -130 -18 -63 -8 -163 21 -214 62
-112 219 -134 302 -42 34 38 55 91 42 110 -8 14 -35 2 -35 -16 0 -27 -31 -74
-63 -93 -75 -46 -171 -15 -215 70 -20 38 -23 56 -19 116 4 83 26 127 77 161
66 45 170 22 205 -47 14 -27 55 -44 55 -21 0 15 -45 74 -73 95 -37 27 -149 34
-192 11z"/>
<path d="M21160 9631 c0 -44 -3 -50 -22 -53 -34 -5 -37 -38 -4 -38 l26 0 0
-120 c0 -107 2 -122 20 -140 27 -27 80 -27 80 -1 0 14 -8 21 -27 23 l-28 3 -3
118 -3 117 31 0 c23 0 30 4 30 20 0 16 -7 20 -30 20 -29 0 -30 1 -30 50 0 43
-3 50 -20 50 -17 0 -20 -7 -20 -49z"/>
<path d="M19900 9571 c-52 -28 -73 -62 -78 -130 -5 -73 10 -123 49 -155 61
-52 158 -42 206 21 21 28 28 49 31 98 5 83 -20 134 -81 164 -53 26 -82 26
-127 2z m113 -32 c36 -16 57 -60 57 -119 0 -57 -11 -86 -44 -112 -26 -22 -94
-23 -122 -3 -28 19 -54 75 -54 114 0 38 33 106 57 120 24 14 76 14 106 0z"/>
<path d="M20254 9571 c-18 -11 -35 -25 -40 -33 -6 -9 -10 -7 -14 10 -3 13 -9
24 -15 25 -6 1 -11 -57 -13 -155 -2 -136 0 -158 13 -158 12 0 15 17 15 100 0
147 23 190 102 190 66 0 72 -13 78 -157 4 -111 7 -128 23 -131 15 -3 17 8 17
127 0 128 0 131 -27 161 -37 41 -94 50 -139 21z"/>
<path d="M20572 9573 c-49 -24 -75 -68 -80 -134 -2 -31 1 -73 8 -93 24 -72
106 -112 178 -84 38 14 82 67 82 99 0 30 -26 22 -40 -11 -16 -40 -46 -60 -88
-60 -47 0 -69 14 -92 60 -33 65 -20 139 34 182 32 26 97 23 124 -5 12 -13 22
-29 22 -35 0 -7 9 -12 20 -12 44 0 1 72 -56 96 -43 18 -71 17 -112 -3z"/>
<path d="M20895 9582 c-31 -11 -50 -25 -68 -52 -23 -33 -21 -50 3 -50 11 0 20
7 20 15 0 30 38 55 85 55 32 0 51 -6 65 -20 42 -42 16 -78 -65 -90 -109 -15
-135 -35 -135 -103 0 -87 138 -117 200 -42 12 14 14 13 24 -7 7 -14 22 -24 39
-26 32 -4 37 17 7 36 -18 11 -20 23 -20 122 0 99 -2 111 -22 135 -24 27 -93
41 -133 27z m125 -182 c0 -67 -45 -110 -114 -110 -37 0 -61 16 -71 47 -9 32
33 73 77 74 18 1 44 5 58 9 44 14 50 11 50 -20z"/>
<path d="M5737 11843 c-3 -10 -26 -67 -52 -128 -58 -139 -76 -187 -71 -192 2
-2 19 5 37 16 19 12 37 21 42 21 4 0 7 -103 7 -230 l0 -230 -832 0 c-950 0
-886 5 -946 -85 l-32 -48 0 -401 c0 -387 1 -401 21 -444 13 -26 38 -54 62 -70
39 -26 46 -27 204 -30 90 -2 163 -4 163 -5 0 -2 -31 -79 -69 -172 -37 -94 -67
-171 -66 -173 2 -2 21 6 44 18 l41 20 0 -145 0 -145 -765 0 c-629 0 -771 -2
-798 -14 -39 -17 -92 -71 -106 -109 -7 -18 -11 -168 -11 -419 0 -374 1 -394
20 -434 12 -24 38 -54 63 -70 l42 -29 1585 -3 c872 -1 1600 0 1618 3 40 7 110
68 129 112 10 25 13 117 13 418 0 414 -2 428 -53 483 -55 60 -12 57 -857 62
l-775 5 -3 143 c-3 155 -2 158 53 122 17 -11 33 -20 37 -20 3 0 -23 71 -59
158 -36 86 -67 165 -70 175 -5 16 64 17 1345 17 l1351 0 -70 -171 c-39 -94
-68 -173 -66 -176 3 -2 20 5 38 16 19 12 37 21 42 21 4 0 7 -1624 7 -3610 l0
-3610 50 0 50 0 0 3610 c0 1986 3 3610 8 3610 4 0 22 -9 41 -21 18 -11 35 -18
38 -16 2 3 -25 77 -61 164 -36 87 -66 164 -66 171 0 9 50 12 197 12 232 0 264
9 314 88 l29 46 0 406 0 407 -32 48 c-60 90 3 85 -940 85 l-828 0 0 230 c0
127 3 230 6 230 4 0 22 -10 41 -21 19 -12 36 -19 39 -16 3 3 -12 47 -34 99
-21 51 -52 126 -67 166 -29 74 -39 85 -48 55z m1710 -858 c52 -22 55 -48 51
-447 l-3 -358 -28 -27 -27 -28 -1681 -3 c-1860 -2 -1735 -7 -1758 60 -7 20
-11 158 -11 380 0 377 3 402 53 426 15 7 533 11 1697 11 1402 0 1680 -2 1707
-14z m-1503 -1694 l26 -24 0 -387 0 -387 -26 -24 -26 -24 -1551 -3 c-1114 -2
-1563 0 -1590 8 -65 19 -67 30 -67 428 0 234 4 360 11 382 22 63 -78 60 1636
57 l1561 -2 26 -24z"/>
<path d="M4810 10559 l0 -220 23 3 c22 3 22 5 25 183 l3 180 35 -90 c102 -264
107 -276 127 -273 15 2 31 31 64 118 24 63 56 144 71 180 l27 65 3 -183 c2
-174 3 -182 22 -182 19 0 20 8 20 221 l0 220 -31 -3 c-31 -3 -33 -7 -96 -168
-36 -91 -67 -173 -70 -182 -9 -29 -17 -21 -37 35 -10 28 -41 112 -69 185 l-50
132 -33 0 -34 0 0 -221z"/>
<path d="M5810 10560 c0 -213 1 -220 20 -220 19 0 20 8 22 187 l3 188 71 -185
c57 -149 75 -186 91 -188 21 -3 21 -5 118 248 21 52 41 99 46 104 5 6 9 -66 9
-172 0 -175 1 -182 20 -182 19 0 20 7 20 220 l0 220 -35 0 c-19 0 -35 -5 -35
-10 0 -14 -130 -343 -139 -353 -4 -4 -39 76 -77 178 l-69 185 -32 0 -33 0 0
-220z"/>
<path d="M6650 10560 c0 -213 1 -220 20 -220 19 0 20 7 20 220 0 213 -1 220
-20 220 -19 0 -20 -7 -20 -220z"/>
<path d="M5650 10710 c0 -47 -2 -50 -25 -50 -18 0 -25 -5 -25 -20 0 -15 7 -20
25 -20 l25 0 0 -120 c0 -138 10 -160 75 -160 28 0 35 4 35 20 0 15 -7 20 -29
20 -17 0 -31 6 -35 16 -3 9 -6 63 -6 120 l0 104 36 0 c28 0 35 3 32 18 -2 11
-14 18 -36 20 -31 3 -32 4 -32 53 0 42 -3 49 -20 49 -17 0 -20 -7 -20 -50z"/>
<path d="M5390 10663 c-40 -13 -60 -29 -75 -58 -19 -42 -19 -45 5 -45 11 0 20
5 20 10 0 6 11 22 25 35 58 59 179 4 137 -62 -4 -7 -40 -17 -80 -23 -112 -16
-143 -46 -128 -126 6 -29 14 -38 44 -51 44 -18 105 -12 142 15 26 20 27 20 38
1 14 -22 62 -26 62 -5 0 8 -7 16 -15 20 -12 4 -15 26 -15 110 0 58 -5 116 -11
130 -19 42 -96 67 -149 49z m109 -235 c-31 -75 -169 -77 -169 -2 0 42 23 56
125 72 48 7 50 7 53 -16 2 -13 -2 -37 -9 -54z"/>
<path d="M6317 10653 c-4 -3 -7 -56 -7 -117 0 -123 15 -170 60 -194 36 -19
106 -9 136 19 l25 23 6 -22 c3 -12 12 -22 19 -22 11 0 14 30 14 160 0 151 -1
160 -19 160 -18 0 -20 -10 -23 -119 -3 -110 -5 -121 -27 -145 -19 -20 -34 -26
-66 -26 -70 0 -79 19 -84 166 -2 90 -6 124 -15 124 -7 0 -16 -3 -19 -7z"/>
<path d="M3425 9102 c-83 -8 -135 -56 -135 -124 0 -64 41 -97 148 -118 74 -15
126 -46 130 -79 10 -66 -31 -101 -120 -101 -68 0 -112 26 -128 74 -8 25 -18
36 -31 36 -23 0 -24 -18 -5 -65 26 -62 114 -95 211 -81 125 19 165 170 59 221
-22 10 -72 27 -113 36 -40 10 -82 26 -92 35 -26 23 -24 67 4 100 50 58 173 35
200 -36 12 -33 47 -42 47 -12 0 63 -91 123 -175 114z"/>
<path d="M4066 9077 c-11 -8 -20 -31 -23 -60 -5 -41 -8 -47 -29 -47 -17 0 -24
-6 -24 -20 0 -15 7 -20 25 -20 l25 0 0 -140 c0 -133 1 -140 20 -140 19 0 20 7
20 140 l0 140 55 0 55 0 0 -120 c0 -108 2 -122 21 -141 14 -14 30 -19 52 -17
42 4 43 31 2 38 l-30 5 -3 117 -3 117 33 3 c45 4 45 32 1 36 -32 3 -33 4 -33
53 0 42 -3 49 -20 49 -17 0 -20 -7 -20 -49 0 -43 -3 -49 -24 -53 -13 -3 -38
-3 -55 0 -27 4 -31 8 -31 36 0 38 15 56 47 56 14 0 23 6 23 15 0 19 -59 20
-84 2z"/>
<path d="M4360 8870 c0 -213 1 -220 20 -220 19 0 20 8 22 188 l3 187 43 -110
c24 -60 57 -145 74 -187 46 -117 51 -113 139 110 l74 187 3 -187 c2 -180 3
-188 22 -188 19 0 20 7 20 220 l0 220 -30 0 c-22 0 -33 -6 -40 -22 -5 -13 -37
-93 -70 -178 -34 -85 -65 -159 -69 -163 -5 -5 -39 75 -77 177 l-69 186 -32 0
-33 0 0 -220z"/>
<path d="M3740 8962 c-56 -31 -74 -64 -78 -140 -5 -107 40 -170 129 -179 55
-5 105 19 136 66 28 41 32 145 8 191 -34 67 -131 97 -195 62z m119 -36 c29
-16 46 -45 56 -99 8 -42 -22 -120 -53 -136 -37 -20 -97 -13 -125 13 -64 59
-54 183 18 224 27 16 71 15 104 -2z"/>
<path d="M4944 8974 c-26 -6 -69 -51 -79 -81 -10 -36 26 -28 50 10 44 70 170
38 151 -38 -5 -20 -15 -25 -54 -30 -119 -15 -162 -41 -162 -99 0 -45 32 -84
76 -92 46 -9 111 11 125 38 11 20 11 20 23 -3 13 -28 66 -40 66 -16 0 8 -6 17
-14 20 -11 4 -15 33 -18 121 -3 109 -4 117 -29 142 -27 26 -86 38 -135 28z
m126 -185 c0 -63 -43 -108 -104 -109 -23 0 -47 7 -58 17 -21 19 -24 66 -4 82
10 9 94 30 159 40 4 0 7 -13 7 -30z"/>
<path d="M5166 8961 c-3 -4 17 -37 44 -72 27 -35 50 -68 50 -72 0 -4 -25 -41
-55 -81 -30 -40 -55 -76 -55 -79 0 -4 9 -7 19 -7 12 0 37 24 67 65 26 36 50
65 53 65 3 -1 27 -30 54 -65 30 -42 55 -65 67 -65 11 0 20 3 20 6 0 3 -25 38
-55 77 -30 39 -55 76 -55 83 0 6 22 40 50 75 27 35 50 67 50 72 0 4 -9 7 -20
7 -12 0 -34 -21 -62 -60 -23 -33 -44 -60 -47 -60 -4 1 -26 28 -50 60 -43 57
-63 71 -75 51z"/>
<path d="M20280 8778 c-18 -46 -41 -101 -50 -123 -62 -141 -64 -153 -17 -125
17 11 37 20 44 20 8 0 11 -75 11 -277 0 -153 -2 -290 -5 -306 l-5 -27 -1611 3
c-887 2 -1616 5 -1622 5 -5 1 -48 -2 -95 -7 -92 -9 -140 -26 -182 -64 -34 -32
-78 -115 -78 -148 0 -14 -3 -46 -6 -71 l-6 -45 -77 -6 c-116 -7 -180 -48 -230
-142 -21 -39 -21 -47 -21 -793 0 -616 2 -759 14 -786 19 -46 72 -104 120 -129
40 -22 49 -22 534 -25 270 -2 492 -6 492 -11 0 -4 -29 -79 -65 -167 -36 -87
-65 -162 -65 -167 0 -4 18 2 40 13 21 11 41 20 44 20 3 0 4 -132 3 -292 l-2
-293 -145 -2 c-100 -1 -151 2 -165 11 -13 8 -35 9 -65 5 -25 -4 -69 -8 -98 -8
-83 -1 -137 -19 -186 -62 -48 -42 -71 -89 -81 -164 -14 -112 -10 -105 -74
-105 -123 0 -225 -68 -255 -171 -23 -77 -24 -770 -1 -847 19 -62 62 -115 119
-145 40 -22 49 -22 514 -25 318 -2 472 -6 472 -13 0 -6 -27 -76 -60 -156 -33
-81 -58 -148 -56 -151 3 -2 20 5 39 17 19 11 37 21 41 21 3 0 7 -431 8 -957
l3 -958 48 -3 47 -3 0 745 0 745 24 68 c14 37 48 142 76 233 29 91 56 174 60
185 5 11 11 38 13 61 3 22 14 67 26 100 l22 59 327 3 c384 3 409 8 478 78 50
52 74 117 74 200 0 58 7 64 69 64 97 0 192 54 232 132 25 50 47 268 30 305 -7
15 -11 121 -11 294 0 227 -3 276 -16 304 -23 50 -105 123 -145 129 -19 4 -234
8 -479 10 -245 2 -462 7 -483 11 -24 5 -42 3 -52 -5 -17 -14 -212 -4 -232 12
-14 11 -18 205 -5 224 4 6 15 13 25 17 26 10 24 74 -3 82 -18 6 -20 15 -20
121 0 72 4 114 10 114 6 0 22 -7 36 -16 13 -9 27 -14 30 -11 9 8 -33 129 -76
223 -64 138 -74 124 90 123 l142 -1 -3 -322 -4 -321 55 0 55 0 -2 40 c-8 139
-14 558 -9 579 l6 26 1216 0 c975 0 1215 -2 1211 -12 -3 -7 -32 -81 -66 -165
-34 -84 -61 -157 -61 -163 0 -6 17 -2 40 10 21 11 41 20 43 20 10 0 5 -570 -5
-576 -13 -8 -294 -8 -339 1 -55 9 -251 -11 -290 -30 -84 -42 -126 -114 -136
-231 l-6 -71 -88 -6 c-127 -8 -158 -29 -210 -136 l-32 -66 -1 -400 c-1 -400
-1 -400 22 -448 13 -26 40 -61 60 -77 70 -58 91 -60 589 -60 249 0 453 -2 453
-3 0 -2 -29 -74 -65 -160 -35 -87 -62 -157 -59 -157 3 0 23 9 44 20 l40 20 2
-957 3 -958 48 -3 47 -3 0 733 c0 418 4 748 10 768 5 19 19 62 31 95 12 33 27
80 35 105 7 25 20 65 28 90 40 122 66 213 71 246 2 21 14 65 25 98 l20 61 336
3 c361 4 384 7 451 58 56 42 85 105 91 193 3 42 10 79 16 83 6 4 29 8 52 8 77
0 145 28 195 79 50 52 68 102 70 193 0 29 4 77 8 106 4 28 4 52 0 52 -4 0 -9
130 -11 288 l-3 289 -26 39 c-40 58 -86 102 -122 113 -19 6 -278 11 -628 14
-329 3 -602 8 -608 11 -7 5 -11 49 -11 122 0 110 1 115 23 125 19 9 23 17 19
42 -2 18 -11 37 -19 44 -10 8 -16 42 -20 122 -7 121 -6 123 48 95 17 -8 33
-14 35 -11 6 6 -61 189 -97 265 -16 34 -29 67 -29 72 0 7 48 10 138 8 l137 -3
0 -320 0 -320 52 -3 53 -3 -7 299 c-3 164 -3 310 1 325 l6 27 1205 0 c663 0
1205 -1 1205 -3 0 -2 -21 -55 -46 -118 -71 -175 -84 -208 -84 -219 0 -6 18 -1
40 10 21 11 41 20 44 20 3 0 5 -130 5 -289 l0 -289 -31 -6 c-17 -3 -90 -6
-162 -6 -103 0 -136 3 -154 16 -21 14 -57 15 -92 1 -8 -3 -50 -8 -94 -11 -63
-4 -87 -10 -124 -33 -74 -46 -101 -92 -114 -201 l-11 -92 -62 0 c-120 0 -215
-50 -230 -122 -4 -18 -15 -43 -23 -56 -14 -21 -16 -79 -16 -421 -1 -445 -1
-443 69 -515 73 -75 80 -76 602 -76 385 0 453 -2 453 -14 0 -8 -29 -86 -64
-173 -35 -87 -63 -159 -61 -161 1 -2 18 6 36 17 19 12 40 21 47 21 9 0 12
-196 12 -946 l0 -945 48 3 47 3 2 758 c2 479 6 764 13 776 24 46 145 436 155
501 2 14 14 54 27 90 l23 64 330 4 c357 3 395 8 456 59 54 46 82 107 87 192 3
42 10 79 16 83 6 4 29 8 52 8 111 0 218 68 248 157 9 26 16 77 16 114 0 37 5
71 11 74 14 9 8 76 -8 93 -10 10 -13 80 -13 295 0 275 -1 283 -23 319 -23 39
-85 93 -127 111 -22 10 -154 12 -955 17 -27 1 -99 1 -159 0 -79 0 -112 3 -118
12 -4 7 -8 61 -8 121 0 107 0 108 26 117 23 9 26 14 20 43 -3 17 -13 37 -22
44 -12 9 -16 35 -17 116 -1 58 1 108 5 112 3 3 20 -1 38 -10 18 -9 34 -14 38
-11 6 6 -27 95 -90 241 -21 50 -38 93 -38 98 0 4 63 7 141 6 l141 0 -3 -322
-4 -322 53 -3 52 -3 0 325 0 325 305 1 c278 0 310 2 358 20 93 35 157 122 157
213 0 25 3 58 6 74 6 30 7 31 77 35 112 7 181 49 224 133 21 40 28 73 36 174
7 92 7 126 -2 129 -20 7 -12 26 34 85 l45 57 281 0 280 0 -3 23 -3 22 -252 3
c-139 1 -253 5 -253 9 0 3 26 35 58 70 109 123 262 318 284 363 47 97 20 194
-71 251 -64 41 -71 39 -71 -24 0 -46 4 -56 30 -79 35 -30 39 -69 12 -110 -49
-75 -359 -448 -373 -448 -5 0 -9 197 -9 510 0 563 1 551 -63 618 -18 19 -49
42 -69 53 -36 19 -86 19 -1920 19 -1036 0 -1893 3 -1905 6 -19 5 -22 15 -28
112 -5 68 -4 111 3 122 6 11 8 82 5 203 -4 108 -2 187 3 187 5 0 24 -9 43 -21
18 -11 35 -19 36 -17 2 2 -15 46 -37 98 -22 52 -51 124 -65 160 -13 36 -26 66
-28 68 -2 2 -12 -21 -24 -50 -11 -29 -41 -102 -66 -163 -25 -60 -45 -111 -45
-113 0 -1 18 7 39 18 22 11 42 16 45 12 7 -12 5 -602 -3 -606 -3 -2 -56 -6
-116 -7 l-110 -3 -6 45 c-4 24 -4 164 -1 311 l5 267 45 -27 c30 -17 44 -21 40
-12 -42 109 -132 327 -138 333 -4 5 -22 -29 -40 -75z m-14 -1000 c-2 -35 -3
-87 -4 -115 l-2 -53 -1744 0 -1745 0 -7 45 c-11 76 12 130 69 165 31 20 65 20
1734 20 l1701 0 -2 -62z m4262 42 c17 -11 32 -24 32 -29 0 -5 8 -17 18 -27 16
-16 17 -58 17 -589 l0 -572 -96 -114 c-54 -63 -108 -124 -120 -136 l-24 -22 3
522 c3 512 2 523 -19 590 -18 55 -30 74 -65 103 -83 68 56 64 -2020 64 l-1882
0 -4 61 c-1 33 -1 85 0 115 l4 54 2061 0 c2038 0 2062 0 2095 -20z m-347 -343
c71 -47 69 -27 69 -661 l0 -568 -59 4 c-44 3 -68 11 -94 31 -20 15 -39 27 -44
27 -11 -1 -73 -58 -73 -68 0 -14 86 -72 131 -87 23 -8 64 -15 91 -15 l50 0 -4
-104 c-3 -113 -13 -136 -72 -180 l-27 -21 -3807 0 -3807 0 -35 20 c-73 43 -70
5 -70 813 0 805 -3 769 68 810 l37 22 3806 0 3806 0 34 -23z m409 -1150 c-9
-110 -60 -157 -170 -157 l-64 0 60 63 c33 34 85 91 114 126 62 72 69 69 60
-32z m-7171 -1583 l31 -6 0 -114 0 -114 -325 0 -325 0 0 66 c0 72 22 123 63
147 31 17 488 34 556 21z m1386 -13 c17 -7 39 -25 50 -40 19 -25 20 -44 23
-426 3 -364 2 -403 -14 -433 -27 -51 -70 -72 -148 -72 l-66 0 0 255 c0 310 -5
337 -72 410 -78 86 -74 85 -590 85 l-438 0 0 115 0 114 73 4 c39 2 315 3 612
2 431 0 546 -3 570 -14z m1368 12 l107 -6 0 -91 c0 -50 -3 -101 -6 -113 l-6
-23 -334 0 -334 0 0 61 c0 43 6 72 21 98 38 68 20 65 395 79 28 1 99 -1 157
-5z m1453 -28 c60 -46 59 -35 59 -460 0 -357 -2 -393 -18 -423 -28 -51 -71
-72 -149 -72 l-67 0 -3 288 -3 287 -29 48 c-32 53 -92 99 -151 116 -26 7 -185
11 -462 11 l-423 0 0 115 0 114 73 3 c39 2 312 2 605 1 l534 -2 34 -26z m1433
29 l32 -7 -3 -111 -3 -111 -337 -3 -338 -2 0 61 c0 70 20 120 58 146 22 14 55
19 167 24 221 8 390 10 424 3z m1374 -21 c55 -28 57 -46 57 -473 0 -431 0
-432 -63 -470 -23 -15 -50 -20 -99 -20 l-68 0 0 263 c0 292 -6 334 -60 399
-16 20 -51 47 -77 60 -48 23 -52 23 -488 28 l-440 5 -3 112 -3 112 98 3 c54 2
327 1 608 -1 423 -2 515 -5 538 -18z m-5958 -343 c64 -40 65 -46 65 -473 0
-383 0 -384 -23 -418 -49 -74 17 -69 -1024 -67 -928 3 -932 3 -960 24 -15 11
-38 36 -50 54 -23 33 -23 35 -23 409 0 419 1 423 69 468 l34 23 940 0 c925 0
940 0 972 -20z m2806 -4 c20 -14 41 -38 48 -53 8 -21 11 -137 9 -425 l-3 -397
-30 -31 c-16 -17 -45 -35 -65 -41 -23 -6 -348 -9 -957 -7 -913 3 -922 3 -949
24 -69 51 -69 51 -72 317 -2 133 1 312 5 398 8 140 11 158 32 185 12 16 32 34
44 41 17 9 244 12 962 13 l940 0 36 -24z m2806 4 c64 -39 64 -37 61 -479 l-3
-399 -25 -27 c-52 -57 -13 -55 -1005 -55 -985 0 -955 -2 -1001 51 -46 53 -48
68 -41 455 7 402 9 417 71 455 30 18 69 19 971 19 915 0 941 -1 972 -20z
m-6424 -1066 c3 -3 -3 -29 -13 -58 -10 -28 -24 -71 -30 -95 -7 -27 -15 -40
-21 -34 -10 10 -79 172 -79 185 0 9 134 11 143 2z m2800 -1 c6 -13 -55 -196
-62 -186 -11 12 -71 166 -71 181 0 13 126 18 133 5z m2815 -5 c-3 -7 -17 -55
-33 -105 -16 -51 -32 -93 -35 -93 -8 0 -80 179 -80 198 0 8 22 12 76 12 57 0
75 -3 72 -12z m-5709 -285 c0 -10 -4 -27 -9 -38 -7 -16 -9 -13 -9 18 -1 20 4
37 9 37 6 0 10 -8 9 -17z m2803 -20 l-6 -28 -6 25 c-7 27 -3 43 9 35 5 -2 6
-17 3 -32z"/>
<path d="M17863 7245 c-43 -18 -66 -57 -67 -111 -1 -38 4 -50 27 -70 15 -13
46 -28 70 -34 146 -37 187 -60 187 -105 0 -13 -11 -36 -23 -51 -20 -23 -34
-28 -83 -32 -86 -6 -129 14 -145 67 -8 29 -18 41 -31 41 -41 0 -7 -99 43 -125
18 -10 57 -19 88 -22 118 -11 191 37 191 124 0 72 -44 103 -207 143 -56 14
-75 34 -71 78 8 99 169 105 216 8 17 -34 48 -31 44 4 -3 31 -38 69 -79 86 -41
18 -119 17 -160 -1z"/>
<path d="M18810 7030 c0 -213 1 -220 20 -220 19 0 20 7 20 220 0 213 -1 220
-20 220 -19 0 -20 -7 -20 -220z"/>
<path d="M19490 7164 l0 -86 -31 26 c-52 44 -103 46 -160 6 -86 -62 -76 -257
15 -295 52 -22 98 -19 140 10 34 23 36 23 36 5 0 -13 7 -20 20 -20 19 0 20 7
20 220 0 213 -1 220 -20 220 -18 0 -20 -7 -20 -86z m-52 -80 c66 -46 70 -187
7 -228 -28 -18 -87 -21 -117 -5 -43 23 -61 119 -34 183 26 61 94 85 144 50z"/>
<path d="M19780 7031 l0 -221 88 0 c149 1 199 22 240 100 39 78 28 223 -22
278 -39 44 -75 55 -193 60 l-113 5 0 -222z m237 159 c55 -33 68 -64 68 -160 0
-96 -13 -127 -68 -160 -25 -16 -50 -20 -114 -20 l-83 0 0 180 0 180 83 0 c64
0 89 -4 114 -20z"/>
<path d="M20950 7030 c0 -213 1 -220 20 -220 19 0 20 7 20 90 l0 90 85 0 c97
0 141 14 173 55 26 33 29 102 7 145 -25 49 -60 60 -190 60 l-115 0 0 -220z
m250 162 c13 -11 23 -33 27 -59 5 -37 2 -46 -25 -73 -29 -29 -33 -30 -121 -30
l-91 0 0 90 0 90 94 0 c75 0 98 -4 116 -18z"/>
<path d="M22090 7169 l0 -80 -29 20 c-46 33 -84 36 -133 12 -62 -29 -83 -69
-83 -156 0 -80 16 -113 68 -145 44 -27 96 -25 141 5 37 25 38 25 43 5 3 -11
12 -20 19 -20 12 0 14 39 14 220 0 213 -1 220 -20 220 -18 0 -20 -7 -20 -81z
m-34 -103 c31 -31 34 -40 34 -90 0 -95 -33 -136 -108 -136 -53 0 -89 36 -98
97 -20 132 88 213 172 129z"/>
<path d="M20558 7178 c-2 -38 -7 -53 -18 -54 -8 -1 -21 -2 -27 -3 -7 0 -13 -8
-13 -16 0 -10 10 -15 30 -15 l30 0 0 -124 c0 -140 7 -156 66 -156 27 0 34 4
34 19 0 14 -8 21 -27 23 l-28 3 -3 118 -3 117 31 0 c40 0 40 26 1 35 -27 6
-30 10 -33 53 -2 35 -7 48 -20 50 -14 3 -17 -6 -20 -50z"/>
<path d="M22870 7177 c0 -49 -2 -54 -22 -53 -14 1 -24 -6 -26 -16 -3 -14 3
-18 22 -18 l26 0 0 -118 c0 -141 9 -162 71 -162 33 0 40 3 37 17 -2 11 -15 20
-33 23 l-30 5 0 115 0 115 33 3 c45 5 41 36 -6 40 -31 3 -32 4 -32 53 0 42 -3
49 -20 49 -17 0 -20 -7 -20 -53z"/>
<path d="M18255 7126 c-122 -55 -128 -262 -9 -312 73 -31 153 -4 180 61 19 45
18 55 -5 55 -12 0 -21 -9 -25 -25 -21 -84 -138 -88 -181 -5 -30 59 -11 151 38
183 44 28 85 22 123 -19 43 -45 69 -44 49 3 -25 59 -108 88 -170 59z"/>
<path d="M18564 7126 c-54 -24 -88 -96 -45 -96 12 0 21 9 25 25 12 46 100 61
137 24 13 -13 19 -30 17 -47 -3 -29 -20 -36 -112 -47 -93 -12 -135 -90 -82
-152 22 -25 31 -28 84 -28 50 0 65 4 85 23 l25 24 11 -21 c8 -14 21 -21 41
-21 34 0 39 14 10 30 -18 10 -20 21 -20 115 0 57 -5 115 -11 129 -23 49 -102
69 -165 42z m136 -192 c0 -77 -107 -127 -160 -74 -53 53 8 104 133 109 25 1
27 -2 27 -35z"/>
<path d="M19005 7126 c-99 -43 -127 -200 -51 -284 28 -30 40 -36 87 -39 32 -2
64 1 79 9 27 14 70 73 70 94 0 26 -28 14 -49 -20 -25 -39 -38 -46 -90 -46 -45
0 -87 38 -97 88 l-6 31 123 3 124 3 -3 35 c-5 47 -31 90 -72 117 -37 26 -71
28 -115 9z m116 -55 c16 -16 29 -39 29 -50 0 -20 -5 -21 -100 -21 -55 0 -100
2 -100 5 0 4 7 19 15 35 34 66 106 80 156 31z"/>
<path d="M20265 7125 c-46 -25 -63 -44 -81 -91 -35 -93 8 -203 88 -225 115
-31 198 35 198 157 0 66 -21 109 -71 146 -36 27 -97 33 -134 13z m117 -45 c58
-45 65 -156 13 -210 -60 -63 -164 -26 -181 64 -21 113 89 209 168 146z"/>
<path d="M21337 7133 c-4 -3 -7 -78 -7 -165 0 -151 1 -158 20 -158 18 0 20 7
20 88 0 115 13 158 53 182 18 11 40 20 50 20 12 0 17 6 15 18 -6 26 -56 18
-90 -14 l-28 -28 0 32 c0 30 -16 42 -33 25z"/>
<path d="M21584 7126 c-80 -36 -116 -149 -76 -238 24 -56 58 -80 120 -85 61
-5 110 20 140 72 29 51 27 150 -4 192 -47 63 -119 87 -180 59z m127 -57 c77
-83 33 -229 -69 -229 -47 0 -80 22 -98 66 -19 46 -18 80 6 129 35 72 111 88
161 34z"/>
<path d="M22612 7124 c-85 -43 -117 -155 -70 -244 62 -117 224 -103 254 23 9
41 -22 35 -40 -7 -17 -41 -42 -56 -91 -56 -99 0 -141 149 -64 228 46 47 90 45
138 -7 43 -47 67 -43 46 6 -26 61 -110 89 -173 57z"/>
<path d="M22418 7015 c-4 -132 -20 -167 -78 -173 -85 -9 -100 16 -100 168 0
103 -1 110 -20 110 -19 0 -20 -7 -20 -115 0 -133 13 -179 57 -196 41 -16 110
-5 138 21 l23 22 4 -24 c2 -12 10 -23 18 -23 13 0 15 24 15 159 0 141 -2 159
-17 162 -14 2 -17 -12 -20 -111z"/>
<path d="M20710 6980 c0 -18 7 -20 75 -20 68 0 75 2 75 20 0 18 -7 20 -75 20
-68 0 -75 -2 -75 -20z"/>
<path d="M19369 6308 c-46 -117 -85 -216 -87 -220 -2 -4 7 -8 20 -8 19 0 27
11 49 68 l26 67 100 3 100 3 25 -68 c19 -52 31 -69 47 -71 28 -4 27 5 -9 91
-36 88 -115 294 -124 325 -5 16 -15 22 -35 22 -26 0 -30 -8 -112 -212z m152
55 c22 -54 39 -99 39 -100 0 -2 -38 -3 -84 -3 l-84 0 41 105 c23 57 43 102 45
100 3 -3 22 -49 43 -102z"/>
<path d="M20890 6495 c0 -28 27 -45 40 -25 12 20 -1 50 -21 50 -14 0 -19 -7
-19 -25z"/>
<path d="M19727 6493 c-4 -3 -7 -26 -7 -49 0 -37 -3 -43 -22 -46 -33 -4 -37
-38 -5 -38 l25 0 4 -126 c3 -140 10 -154 75 -154 26 0 33 4 33 20 0 16 -7 20
-30 20 -38 0 -42 15 -38 140 l3 95 33 3 c24 2 32 8 32 23 0 15 -7 19 -35 19
l-35 0 0 50 c0 35 -4 50 -13 50 -8 0 -17 -3 -20 -7z"/>
<path d="M19910 6450 c0 -46 -2 -50 -23 -50 -13 0 -26 -3 -30 -6 -12 -12 6
-34 28 -34 23 0 23 -2 27 -129 2 -71 6 -133 10 -137 5 -4 27 -8 50 -8 52 -1
62 26 13 34 l-30 5 -3 118 -3 117 30 0 c16 0 31 6 34 14 8 19 -1 26 -35 26
-27 0 -28 2 -28 50 0 43 -3 50 -20 50 -17 0 -20 -7 -20 -50z"/>
<path d="M20730 6450 c0 -47 -2 -50 -25 -50 -18 0 -25 -5 -25 -20 0 -15 7 -20
25 -20 l25 0 0 -120 c0 -108 2 -122 21 -141 14 -14 30 -19 52 -17 42 4 43 31
2 38 l-30 5 -3 118 -3 117 36 0 c29 0 36 3 33 18 -2 11 -14 18 -36 20 -31 3
-32 4 -32 53 0 42 -3 49 -20 49 -17 0 -20 -7 -20 -50z"/>
<path d="M20131 6392 c-68 -34 -100 -113 -80 -199 13 -63 33 -92 74 -109 44
-18 86 -18 130 0 33 14 65 59 65 91 0 26 -29 17 -45 -15 -19 -36 -43 -50 -88
-50 -44 0 -74 24 -91 75 l-14 40 124 3 124 3 0 28 c0 43 -41 112 -80 132 -43
24 -75 24 -119 1z m118 -49 c16 -16 32 -38 36 -50 6 -23 5 -23 -94 -23 -64 0
-101 4 -101 10 0 20 30 69 47 79 34 20 81 12 112 -16z"/>
<path d="M20485 6401 c-12 -5 -27 -16 -34 -25 -18 -22 -31 -20 -31 5 0 14 -5
19 -17 17 -16 -3 -18 -19 -18 -158 0 -135 2 -155 16 -158 15 -3 17 12 21 110
4 120 13 148 55 167 33 15 76 14 99 -3 17 -13 19 -29 22 -145 3 -121 5 -131
23 -131 18 0 19 8 19 123 0 67 -3 131 -6 142 -12 45 -100 77 -149 56z"/>
<path d="M21085 6397 c-38 -18 -60 -43 -80 -90 -21 -51 -19 -94 9 -153 21 -44
31 -54 70 -69 112 -43 206 24 206 148 0 71 -18 117 -58 146 -39 27 -108 36
-147 18z m126 -55 c60 -54 49 -190 -17 -221 -71 -32 -133 0 -154 80 -33 121
85 218 171 141z"/>
<path d="M21455 6400 c-12 -4 -27 -15 -34 -24 -14 -17 -32 -22 -30 -8 3 20 -2
32 -16 32 -11 0 -15 -13 -15 -52 -3 -275 -4 -263 16 -263 16 0 18 11 20 95 1
52 3 103 3 113 1 10 14 32 30 48 36 36 90 40 121 9 18 -18 20 -33 20 -145 0
-118 1 -125 20 -125 19 0 20 7 20 131 0 74 -5 139 -11 151 -20 37 -97 58 -144
38z"/>
<path d="M20894 6387 c-2 -7 -3 -78 -2 -157 3 -129 5 -145 21 -148 16 -3 17
10 17 157 0 138 -2 161 -15 161 -9 0 -18 -6 -21 -13z"/>
<path d="M16770 3940 l0 -221 143 3 c118 3 142 5 142 18 0 12 -22 15 -122 18
l-123 3 0 199 c0 193 -1 200 -20 200 -19 0 -20 -7 -20 -220z"/>
<path d="M17090 4129 c0 -24 4 -30 18 -27 10 2 18 14 20 31 3 22 -1 27 -17 27
-17 0 -21 -6 -21 -31z"/>
<path d="M17296 4035 c-16 -9 -35 -23 -42 -33 -12 -16 -13 -15 -14 5 0 26 -11
35 -28 24 -9 -6 -12 -47 -10 -157 3 -132 5 -149 21 -152 15 -3 17 7 17 98 0
148 23 190 104 190 23 0 42 -7 56 -22 18 -19 20 -35 20 -145 0 -116 1 -123 20
-123 19 0 20 7 20 128 0 140 -6 159 -60 187 -37 19 -67 19 -104 0z"/>
<path d="M17610 4032 c-75 -37 -105 -128 -73 -221 24 -73 56 -96 133 -96 44 1
64 6 80 20 23 21 50 67 50 85 0 22 -30 9 -45 -20 -19 -37 -43 -50 -93 -50 -27
0 -45 7 -60 23 -19 21 -42 67 -42 87 0 5 55 11 123 12 l122 3 -3 35 c-5 47
-31 90 -72 117 -40 28 -73 29 -120 5z m122 -49 c14 -16 29 -38 33 -50 6 -23 6
-23 -99 -23 -58 0 -106 2 -106 5 0 4 7 19 15 35 34 65 111 81 157 33z"/>
<path d="M17912 4033 c-30 -15 -62 -57 -62 -83 0 -5 9 -10 20 -10 13 0 20 7
20 19 0 29 38 51 87 51 49 0 73 -20 73 -60 0 -36 -6 -39 -86 -51 -38 -5 -79
-18 -95 -30 -25 -17 -29 -27 -29 -65 0 -53 22 -80 74 -90 46 -8 85 2 114 29
l22 21 16 -22 c17 -25 64 -30 64 -8 0 8 -9 18 -20 21 -18 6 -20 15 -20 110 0
125 -9 151 -55 170 -44 19 -82 19 -123 -2z m138 -185 c-1 -65 -36 -98 -104
-98 -62 0 -98 57 -58 93 14 13 84 33 155 46 4 0 7 -18 7 -41z"/>
<path d="M18187 4043 c-4 -3 -7 -78 -7 -165 0 -134 2 -158 15 -158 12 0 15 17
15 95 0 105 14 152 51 179 13 9 34 16 46 16 23 0 32 23 13 35 -15 9 -76 -21
-94 -46 l-16 -23 0 37 c0 35 -8 46 -23 30z"/>
<path d="M17097 4034 c-4 -4 -7 -77 -7 -161 0 -142 1 -154 18 -151 15 3 17 19
17 157 0 145 -6 177 -28 155z"/>
<path d="M19570 3940 l0 -221 143 3 c118 3 142 5 142 18 0 12 -22 15 -122 18
l-123 3 0 199 c0 193 -1 200 -20 200 -19 0 -20 -7 -20 -220z"/>
<path d="M19890 4129 c0 -24 4 -30 18 -27 10 2 18 14 20 31 3 22 -1 27 -17 27
-17 0 -21 -6 -21 -31z"/>
<path d="M20105 4038 c-11 -6 -30 -20 -42 -31 l-23 -20 0 21 c0 25 -11 34 -28
23 -9 -6 -12 -47 -10 -157 3 -132 5 -149 21 -152 15 -3 17 7 17 98 0 147 23
190 102 190 67 0 73 -13 76 -160 3 -116 6 -131 20 -128 15 3 17 20 20 119 1
64 -2 128 -7 143 -20 51 -99 80 -146 54z"/>
<path d="M20414 4036 c-118 -51 -122 -264 -7 -313 45 -18 117 -11 146 15 20
18 47 64 47 82 0 22 -30 9 -45 -20 -19 -37 -43 -50 -93 -50 -27 0 -45 7 -60
23 -19 21 -42 67 -42 87 0 5 55 11 123 12 l122 3 -3 35 c-5 47 -31 90 -72 117
-37 26 -71 28 -116 9z m118 -53 c14 -16 29 -38 33 -50 6 -23 6 -23 -99 -23
l-105 0 11 30 c24 71 112 94 160 43z"/>
<path d="M20712 4033 c-30 -15 -62 -57 -62 -83 0 -5 9 -10 20 -10 13 0 20 7
20 19 0 29 38 51 87 51 49 0 73 -20 73 -60 0 -36 -6 -39 -86 -51 -38 -5 -79
-18 -95 -30 -25 -17 -29 -27 -29 -65 0 -49 22 -79 65 -90 41 -10 97 3 124 30
l25 25 11 -22 c6 -13 22 -23 38 -25 32 -4 36 13 7 28 -18 10 -20 21 -20 116 0
121 -12 156 -61 173 -44 15 -78 13 -117 -6z m138 -185 c-1 -65 -36 -98 -104
-98 -62 0 -98 57 -58 93 14 13 84 33 155 46 4 0 7 -18 7 -41z"/>
<path d="M20987 4043 c-4 -3 -7 -78 -7 -165 0 -134 2 -158 15 -158 12 0 15 17
15 95 0 105 14 152 51 179 13 9 34 16 46 16 23 0 32 23 13 35 -15 9 -76 -21
-94 -46 l-16 -23 0 37 c0 35 -8 46 -23 30z"/>
<path d="M19890 3880 c0 -148 1 -161 18 -158 15 3 17 19 17 158 0 139 -2 155
-17 158 -17 3 -18 -10 -18 -158z"/>
<path d="M22380 3940 l0 -220 146 0 c133 0 145 1 142 18 -3 15 -18 17 -126 20
l-122 3 0 199 c0 193 -1 200 -20 200 -19 0 -20 -7 -20 -220z"/>
<path d="M22700 4129 c0 -24 4 -30 18 -27 10 2 18 14 20 31 3 22 -1 27 -17 27
-17 0 -21 -6 -21 -31z"/>
<path d="M22915 4039 c-11 -7 -30 -21 -42 -32 l-23 -20 0 21 c0 25 -11 34 -28
23 -9 -6 -12 -47 -10 -157 3 -132 5 -149 21 -152 15 -3 17 7 17 98 0 109 14
161 48 179 33 18 90 13 112 -9 18 -18 20 -33 20 -145 0 -118 1 -125 20 -125
19 0 20 7 20 130 0 127 0 130 -27 160 -31 35 -94 49 -128 29z"/>
<path d="M23221 4032 c-56 -28 -75 -63 -79 -145 -2 -54 1 -81 15 -107 52 -100
222 -85 248 23 10 38 -20 37 -40 -3 -19 -37 -43 -50 -93 -50 -27 0 -45 7 -60
23 -20 21 -42 67 -42 88 0 5 52 9 119 9 67 0 122 4 126 10 10 16 -15 93 -38
119 -24 25 -75 51 -104 51 -10 0 -33 -8 -52 -18z m123 -47 c14 -13 26 -28 26
-34 0 -5 3 -16 6 -25 5 -14 -7 -16 -99 -16 l-106 0 11 30 c24 69 110 93 162
45z"/>
<path d="M23522 4033 c-30 -15 -62 -57 -62 -83 0 -5 9 -10 20 -10 11 0 20 7
20 15 0 30 38 55 83 55 48 0 59 -6 75 -37 22 -41 -12 -73 -78 -73 -41 0 -109
-29 -120 -51 -13 -23 -13 -75 0 -99 13 -25 79 -44 122 -36 19 3 45 17 58 31
l23 25 11 -23 c7 -13 23 -23 39 -25 32 -4 37 17 7 36 -18 11 -20 23 -20 118 0
58 -5 114 -11 126 -13 23 -67 48 -106 48 -15 0 -43 -8 -61 -17z m148 -174 c0
-64 -43 -108 -106 -109 -44 0 -69 14 -78 46 -14 45 35 71 177 93 4 0 7 -13 7
-30z"/>
<path d="M23797 4043 c-4 -3 -7 -78 -7 -165 0 -134 2 -158 15 -158 12 0 15 16
15 88 0 48 5 104 10 124 12 42 52 78 86 78 24 0 33 23 14 35 -15 9 -76 -21
-94 -46 l-16 -23 0 37 c0 35 -8 46 -23 30z"/>
<path d="M22702 3883 c3 -133 5 -158 18 -158 13 0 15 24 15 155 0 140 -2 155
-18 158 -16 3 -17 -8 -15 -155z"/>
<path d="M4332 8310 c-5 -14 -37 -91 -70 -172 -34 -82 -57 -148 -52 -148 5 0
25 9 44 21 l36 21 0 -131 0 -130 -859 -3 -859 -3 -44 -30 c-23 -17 -53 -49
-65 -70 -22 -40 -23 -44 -23 -441 l0 -402 33 -48 c18 -27 49 -56 72 -68 39
-21 55 -21 917 -26 l876 -5 -69 -170 c-38 -93 -69 -172 -69 -173 0 -2 16 5 36
17 19 12 39 21 45 21 5 0 9 -53 9 -125 l0 -124 -523 -3 -523 -3 -49 -25 c-39
-21 -55 -37 -78 -80 l-28 -54 3 -397 3 -397 30 -44 c18 -25 49 -52 75 -65 l44
-23 1092 0 c797 0 1100 3 1125 12 53 17 87 46 112 91 21 41 22 51 25 419 2
252 -1 391 -8 418 -14 54 -72 117 -119 130 -22 7 -235 11 -556 13 l-520 2 -3
119 c-1 66 0 126 2 133 4 10 16 7 47 -12 22 -15 42 -25 44 -23 2 2 -26 73 -61
158 -35 85 -66 163 -70 172 -5 17 46 18 873 20 l878 3 41 22 c22 12 53 41 70
64 l29 42 3 388 c2 257 -1 402 -8 429 -12 43 -65 104 -108 123 -20 9 -252 13
-882 17 l-855 5 -3 114 c-1 63 0 121 3 129 4 11 15 8 52 -13 27 -17 44 -22 40
-14 -3 8 -33 81 -67 163 -78 191 -76 188 -88 156z m1770 -661 c44 -24 48 -57
48 -416 0 -202 -4 -353 -10 -375 -21 -74 139 -68 -1798 -68 l-1743 0 -24 25
-25 24 0 386 0 386 25 24 24 25 1741 0 c1228 0 1747 -3 1762 -11z m-643 -1665
l31 -26 0 -384 0 -385 -25 -24 -24 -25 -1063 -1 c-585 -1 -1079 0 -1098 0 -23
2 -42 10 -57 27 l-23 25 0 385 0 385 26 24 27 25 1088 0 1087 0 31 -26z"/>
<path d="M4581 7427 c-19 -24 -58 -121 -70 -175 -14 -65 -14 -142 0 -202 15
-67 70 -180 87 -180 10 0 12 5 7 18 -4 9 -21 55 -38 102 -27 77 -29 93 -25
180 5 86 21 153 63 253 8 20 -8 23 -24 4z"/>
<path d="M5670 7433 c0 -4 7 -21 16 -38 66 -128 70 -323 8 -463 -28 -64 -28
-62 -10 -62 15 0 71 116 85 180 24 106 6 237 -47 334 -24 45 -52 71 -52 49z"/>
<path d="M2917 7424 c-4 -4 -7 -103 -7 -221 0 -206 1 -213 20 -213 19 0 20 7
20 182 0 100 4 178 8 173 5 -6 26 -55 47 -110 94 -246 91 -240 115 -240 19 0
31 23 93 180 l72 180 3 -182 c2 -175 3 -183 22 -183 19 0 20 7 20 215 0 190
-2 216 -16 222 -9 3 -24 2 -33 -4 -9 -5 -46 -86 -82 -178 -36 -92 -70 -174
-75 -183 -7 -10 -29 38 -79 174 -64 173 -72 189 -95 192 -14 2 -29 0 -33 -4z"/>
<path d="M4037 7424 c-4 -4 -7 -103 -7 -220 0 -172 3 -213 14 -217 22 -9 26 2
26 63 0 46 4 60 23 78 13 12 28 22 34 22 6 0 37 -36 70 -80 43 -60 64 -80 81
-80 27 0 28 -2 -45 98 -30 40 -57 80 -60 88 -3 9 16 34 53 69 52 47 56 54 35
55 -15 0 -50 -24 -101 -70 -43 -38 -80 -70 -84 -70 -3 0 -7 59 -8 132 -3 122
-10 153 -31 132z"/>
<path d="M5377 7393 c-4 -3 -7 -26 -7 -50 0 -40 -2 -43 -26 -43 -19 0 -25 -5
-22 -17 2 -10 13 -19 25 -21 20 -3 21 -10 24 -121 3 -81 8 -123 18 -134 18
-22 91 -24 91 -2 0 9 -9 15 -25 15 -36 0 -45 27 -45 139 l0 101 35 0 c28 0 35
4 35 20 0 16 -7 20 -35 20 l-35 0 0 50 c0 35 -4 50 -13 50 -8 0 -17 -3 -20 -7z"/>
<path d="M3472 7295 c-31 -14 -67 -69 -56 -87 9 -14 34 -8 34 7 0 31 38 55 88
55 53 0 82 -20 82 -57 0 -31 -20 -42 -92 -52 -99 -14 -128 -36 -128 -98 0 -39
24 -69 65 -83 44 -14 87 -5 124 26 29 24 30 24 36 4 8 -25 65 -29 65 -5 0 8
-6 14 -12 13 -10 -2 -14 27 -18 112 -3 63 -11 125 -17 136 -24 41 -109 56
-171 29z m148 -175 c0 -42 -17 -74 -50 -93 -58 -35 -130 -11 -130 42 0 37 20
52 88 67 88 19 92 18 92 -16z"/>
<path d="M3775 7297 c-29 -13 -55 -52 -55 -81 0 -33 41 -64 107 -81 104 -28
130 -62 77 -104 -37 -29 -94 -28 -128 4 -14 13 -26 31 -26 40 0 8 -9 15 -20
15 -48 0 5 -88 67 -109 50 -18 111 -3 150 36 21 20 24 31 19 61 -7 48 -31 66
-105 82 -59 12 -101 39 -101 64 0 45 102 64 140 26 11 -11 20 -24 20 -30 0 -5
8 -10 19 -10 25 0 17 41 -15 71 -29 27 -106 35 -149 16z"/>
<path d="M4720 7292 c-53 -28 -83 -92 -77 -166 8 -94 63 -151 147 -151 82 0
140 59 148 148 5 65 -22 136 -63 163 -40 26 -113 29 -155 6z m137 -44 c32 -36
43 -63 43 -110 0 -105 -105 -167 -174 -103 -64 59 -61 172 6 219 34 24 100 21
125 -6z"/>
<path d="M5090 7299 c-13 -5 -33 -17 -42 -26 -17 -15 -18 -15 -18 5 0 15 -6
22 -20 22 -19 0 -20 -7 -20 -215 0 -208 1 -215 20 -215 18 0 20 7 20 81 l0 81
30 -26 c70 -58 163 -37 207 48 19 37 19 132 0 178 -9 20 -27 44 -41 53 -32 21
-102 28 -136 14z m124 -60 c22 -25 26 -41 26 -90 0 -96 -32 -139 -103 -139
-72 0 -116 72 -102 165 10 67 40 95 104 95 43 0 53 -4 75 -31z"/>
<path d="M5567 7053 c-16 -15 -7 -61 12 -66 26 -6 31 0 31 40 0 25 -4 33 -18
33 -10 0 -22 -3 -25 -7z"/>
<path d="M3723 5801 c-62 -29 -88 -91 -63 -155 12 -32 44 -48 155 -80 96 -27
115 -42 115 -91 0 -49 -38 -78 -109 -83 -77 -6 -116 14 -141 74 -20 45 -36 56
-46 29 -9 -23 15 -72 47 -99 16 -14 54 -30 84 -37 48 -11 63 -10 110 5 68 21
95 53 95 113 0 24 -5 53 -10 64 -14 26 -71 53 -155 73 -95 23 -115 38 -115 82
0 54 36 84 100 84 63 0 103 -20 120 -60 17 -41 55 -43 45 -2 -14 58 -85 101
-165 102 -14 0 -44 -9 -67 -19z"/>
<path d="M4687 5804 c-4 -4 -7 -103 -7 -221 0 -207 1 -213 20 -213 20 0 20 5
18 217 -3 204 -8 240 -31 217z"/>
<path d="M4111 5672 c-52 -26 -74 -63 -79 -130 -6 -86 21 -142 82 -172 76 -36
148 -8 181 73 15 35 14 37 -5 37 -13 0 -22 -9 -26 -25 -9 -36 -50 -65 -91 -65
-48 0 -98 50 -108 108 -16 95 69 184 145 152 17 -7 38 -26 46 -41 16 -32 44
-39 44 -11 0 45 -65 92 -127 92 -15 0 -43 -8 -62 -18z"/>
<path d="M4411 5673 c-32 -16 -65 -68 -55 -85 11 -17 32 -7 38 17 18 72 166
63 166 -10 0 -33 -19 -43 -92 -54 -99 -14 -128 -36 -128 -98 0 -87 124 -120
195 -53 l23 22 7 -21 c4 -15 15 -21 36 -21 31 0 39 14 14 24 -12 4 -15 26 -15
107 0 119 -15 162 -62 178 -44 15 -88 13 -127 -6z m149 -173 c0 -66 -45 -110
-112 -110 -40 0 -68 25 -68 61 0 36 31 58 97 69 82 13 83 13 83 -20z"/>
<path d="M4860 5672 c-72 -35 -100 -151 -60 -240 15 -34 29 -47 66 -63 73 -33
143 -8 179 61 19 37 19 40 -5 40 -11 0 -20 -4 -20 -9 0 -5 -12 -23 -26 -40
-21 -25 -33 -31 -66 -31 -52 0 -108 51 -108 99 l0 31 120 0 120 0 0 27 c0 15
-9 46 -20 69 -34 69 -108 92 -180 56z m93 -21 c35 -14 67 -51 67 -78 0 -22 -2
-23 -100 -23 -63 0 -100 4 -100 10 0 24 32 70 58 84 32 18 43 19 75 7z"/>
<path d="M25550 6660 c0 -183 2 -220 14 -220 11 0 15 24 18 116 l3 116 33 29
c40 36 92 39 120 8 24 -25 32 -69 32 -181 0 -73 3 -88 16 -88 14 0 15 17 12
136 -3 135 -3 136 -31 160 -37 31 -112 34 -150 4 -14 -11 -28 -20 -31 -20 -3
0 -6 36 -6 80 0 64 -3 80 -15 80 -13 0 -15 -31 -15 -220z"/>
<path d="M4272 4862 c-35 -86 -66 -163 -69 -170 -4 -9 8 -7 35 7 23 12 44 21
47 21 3 0 5 -70 5 -155 l0 -155 -772 -2 c-752 -3 -774 -4 -807 -23 -19 -11
-48 -37 -65 -58 l-31 -39 -3 -405 c-3 -399 -2 -406 19 -450 15 -30 37 -55 67
-74 l46 -29 283 0 c156 0 283 -2 283 -4 0 -6 -45 -120 -94 -240 -21 -48 -35
-91 -32 -93 3 -3 20 4 39 16 19 11 37 21 41 21 3 0 6 -112 6 -250 l0 -250 50
0 50 0 0 250 0 250 41 -20 c23 -12 43 -20 45 -18 2 2 -26 75 -61 163 -36 87
-65 162 -65 167 0 4 428 8 950 8 523 0 950 -3 950 -6 0 -3 -29 -78 -65 -166
-36 -88 -64 -163 -61 -165 3 -3 21 4 41 16 20 11 38 21 41 21 2 0 4 -112 4
-250 l0 -250 50 0 50 0 0 250 0 250 41 -20 c23 -12 43 -20 45 -17 2 2 -25 75
-61 162 -36 86 -65 161 -65 166 0 5 153 9 345 9 327 0 348 1 385 20 22 11 52
39 67 62 l28 42 0 412 0 412 -30 43 c-17 24 -46 52 -65 64 -34 20 -52 20 -810
25 l-775 5 -3 153 c-2 110 1 152 9 152 6 0 27 -10 46 -21 19 -12 36 -20 38
-18 6 6 -132 333 -142 336 -4 1 -36 -69 -71 -155z m1677 -588 c20 -26 21 -37
21 -408 -1 -401 0 -400 -47 -424 -16 -9 -414 -12 -1578 -12 -1731 0 -1604 -5
-1625 68 -8 25 -10 155 -8 394 l3 356 24 26 24 26 1583 0 1583 0 20 -26z"/>
<path d="M3410 3850 c0 -213 1 -220 20 -220 19 0 20 8 22 187 l3 187 70 -185
c60 -158 73 -184 93 -187 14 -2 24 3 29 15 28 80 128 330 134 338 5 5 9 -72 9
-173 0 -175 1 -182 20 -182 19 0 20 7 20 221 l0 220 -32 -3 c-29 -3 -34 -9
-61 -78 -87 -222 -109 -276 -116 -283 -6 -6 -87 192 -132 326 -12 33 -17 37
-46 37 l-33 0 0 -220z"/>
<path d="M4420 3851 c0 -213 1 -221 20 -221 19 0 20 8 22 183 3 203 -1 201 64
27 71 -189 79 -205 100 -208 18 -3 29 19 89 173 38 96 72 175 77 175 4 0 8
-79 8 -175 0 -168 1 -175 20 -175 19 0 20 7 20 221 l0 220 -32 -3 c-35 -3 -33
0 -133 -257 l-49 -123 -20 53 c-122 329 -120 324 -154 327 l-32 3 0 -220z"/>
<path d="M5250 3850 c0 -213 1 -220 20 -220 19 0 20 7 20 220 0 213 -1 220
-20 220 -19 0 -20 -7 -20 -220z"/>
<path d="M4248 3998 c-3 -45 -6 -53 -26 -58 -31 -7 -29 -24 3 -28 l25 -3 0
-123 c0 -138 8 -156 68 -156 50 0 52 34 2 41 l-25 4 0 115 0 115 28 3 c37 4
34 37 -3 37 -23 0 -25 4 -28 53 -3 43 -6 52 -22 52 -16 0 -19 -9 -22 -52z"/>
<path d="M3964 3942 c-27 -13 -45 -30 -54 -51 -16 -39 -1 -63 21 -36 45 55 59
65 94 65 34 0 85 -35 85 -58 0 -26 -30 -44 -86 -51 -68 -10 -118 -32 -128 -56
-12 -32 -6 -83 13 -106 27 -34 125 -35 170 -2 29 22 30 22 36 3 4 -14 15 -20
36 -20 31 0 41 23 14 34 -12 4 -15 26 -16 103 -1 54 -4 109 -8 122 -16 59
-106 86 -177 53z m142 -167 c9 -23 -15 -82 -41 -99 -28 -18 -87 -21 -116 -6
-20 11 -26 54 -10 79 10 15 90 39 134 40 15 1 30 -5 33 -14z"/>
<path d="M5136 3943 c-3 -4 -6 -52 -6 -108 0 -90 -3 -106 -23 -136 -20 -30
-28 -34 -74 -37 -49 -3 -53 -1 -67 27 -12 22 -16 60 -16 141 0 103 -1 110 -20
110 -19 0 -20 -7 -20 -115 0 -173 24 -212 122 -203 32 4 57 13 73 28 24 23 25
23 25 3 0 -25 8 -33 26 -26 11 4 14 36 14 158 0 122 -3 154 -14 158 -8 3 -17
3 -20 0z"/>
<path d="M3260 2361 c-109 -33 -167 -109 -177 -231 -10 -122 40 -225 130 -269
53 -26 149 -28 206 -5 39 16 41 15 76 -12 28 -21 39 -24 48 -15 9 10 5 18 -22
40 l-34 28 23 32 c49 70 64 195 34 284 -38 111 -173 182 -284 148z m148 -58
c20 -10 50 -37 67 -61 26 -38 30 -54 33 -122 3 -62 0 -87 -16 -124 -25 -56
-42 -64 -81 -37 -16 12 -34 21 -40 21 -21 0 -11 -37 14 -50 33 -18 32 -26 -6
-39 -96 -33 -206 24 -239 125 -20 60 -8 171 23 221 53 84 153 111 245 66z"/>
<path d="M5067 2354 c-4 -4 -7 -119 -7 -256 0 -241 1 -248 20 -248 18 0 20 7
20 83 l0 83 48 47 c26 26 50 47 54 47 3 0 52 -58 109 -130 88 -110 108 -130
132 -130 15 0 27 2 27 3 0 2 -52 69 -116 148 l-115 144 106 100 c58 55 105
103 105 106 0 4 -13 4 -29 0 -30 -6 -45 -18 -213 -173 -65 -59 -100 -85 -103
-77 -3 8 -6 68 -7 133 -3 111 -10 140 -31 120z"/>
<path d="M6840 2347 c0 -8 40 -122 89 -253 87 -231 91 -239 118 -242 29 -3 30
-1 83 140 29 79 71 190 92 247 38 101 39 129 6 116 -9 -4 -47 -94 -94 -226
-44 -120 -81 -219 -84 -219 -3 0 -18 37 -34 82 -104 291 -134 363 -155 366
-13 2 -21 -2 -21 -11z"/>
<path d="M23005 851 c-84 -39 -130 -124 -129 -241 0 -118 46 -203 129 -241 50
-23 158 -25 209 -4 35 15 38 15 72 -11 28 -21 37 -24 47 -15 9 10 5 19 -20 40
l-33 27 24 35 c12 18 28 49 34 68 17 49 15 160 -4 216 -20 58 -78 117 -132
133 -59 18 -151 14 -197 -7z m219 -55 c19 -14 44 -47 57 -73 39 -81 26 -214
-25 -266 -16 -16 -19 -15 -51 9 -34 25 -55 25 -55 0 0 -7 12 -18 26 -25 55
-25 -4 -56 -90 -47 -188 20 -228 342 -52 422 49 23 148 12 190 -20z"/>
<path d="M17310 783 c161 -436 153 -418 185 -421 l30 -3 89 238 c49 131 91
244 94 251 2 7 -5 12 -21 12 -22 0 -28 -10 -62 -102 -88 -242 -118 -323 -125
-331 -4 -5 -27 45 -50 110 -118 321 -116 318 -143 321 l-26 3 29 -78z"/>
<path d="M20120 610 l0 -250 25 0 c25 0 25 1 26 88 l1 87 49 44 c27 24 51 42
53 40 2 -2 49 -61 105 -131 91 -115 105 -128 133 -128 29 0 30 1 16 18 -8 9
-62 75 -119 146 l-103 129 109 104 c102 96 108 103 79 101 -25 -2 -64 -32
-173 -130 -77 -71 -143 -128 -146 -128 -3 0 -5 59 -5 130 l0 130 -25 0 -25 0
0 -250z"/>
</g>
</svg>
