<?xml version="1.0" standalone="no"?>
<!DOCTYPE svg PUBLIC "-//W3C//DTD SVG 20010904//EN"
 "http://www.w3.org/TR/2001/REC-SVG-20010904/DTD/svg10.dtd">
<svg version="1.0" xmlns="http://www.w3.org/2000/svg"
 width="292.000000pt" height="402.000000pt" viewBox="0 0 292.000000 402.000000"
 preserveAspectRatio="xMidYMid meet">

<g transform="translate(0.000000,402.000000) scale(0.100000,-0.100000)"
fill="#000000" stroke="none">
<path d="M1452 3808 l3 -183 565 -3 c311 -1 575 0 588 3 22 5 22 6 20 183 l-3
177 -588 3 -587 2 2 -182z m1158 2 l0 -170 -575 0 -575 0 0 163 c0 90 3 167 7
170 3 4 262 7 575 7 l568 0 0 -170z"/>
<path d="M1797 3893 c-11 -11 -8 -153 3 -153 6 0 10 33 10 80 0 80 -1 86 -13
73z"/>
<path d="M2080 3880 c0 -5 5 -10 10 -10 6 0 10 5 10 10 0 6 -4 10 -10 10 -5 0
-10 -4 -10 -10z"/>
<path d="M2140 3865 c0 -8 -6 -15 -12 -15 -10 0 -10 -2 -1 -8 6 -4 13 -27 15
-52 2 -36 7 -46 23 -48 16 -3 18 -1 8 9 -7 7 -13 30 -13 50 0 21 6 40 13 42
10 4 10 6 0 6 -7 1 -13 8 -13 16 0 8 -4 15 -10 15 -5 0 -10 -7 -10 -15z"/>
<path d="M1848 3825 c-18 -39 0 -79 37 -83 34 -4 55 18 55 58 0 34 -17 50 -52
50 -21 0 -32 -7 -40 -25z m60 3 c30 -30 -1 -94 -33 -68 -25 20 -13 80 15 80 3
0 11 -5 18 -12z"/>
<path d="M1972 3838 c-7 -7 -12 -26 -12 -43 0 -37 16 -55 48 -55 15 0 22 -5
19 -12 -2 -7 -17 -12 -32 -11 -20 2 -25 -1 -18 -8 6 -6 23 -9 39 -7 29 3 29 4
32 76 l3 72 -34 0 c-18 0 -38 -5 -45 -12z m56 -38 c4 -40 -11 -59 -33 -40 -18
15 -20 51 -3 68 19 19 33 9 36 -28z"/>
<path d="M2080 3795 c0 -30 5 -55 10 -55 6 0 10 25 10 55 0 30 -4 55 -10 55
-5 0 -10 -25 -10 -55z"/>
<path d="M2211 3841 c-19 -12 -7 -39 23 -51 13 -5 27 -13 30 -18 9 -15 -25
-24 -41 -11 -15 13 -28 6 -18 -10 9 -16 61 -13 75 4 16 19 0 40 -35 49 -14 4
-25 11 -25 16 0 16 21 22 36 9 16 -13 30 -6 19 10 -8 13 -45 14 -64 2z"/>
<path d="M2027 3541 c-21 -36 -21 -41 -2 -41 12 0 15 -13 15 -60 l0 -60 -278
0 c-203 0 -281 -3 -290 -12 -17 -17 -17 -319 0 -336 9 -9 147 -12 558 -12 411
0 549 3 558 12 17 17 17 319 0 336 -9 9 -84 12 -275 12 l-263 0 0 60 c0 47 3
60 15 60 19 0 19 3 -3 39 l-18 30 -17 -28z m558 -341 l0 -165 -555 0 -555 0
-3 155 c-1 85 0 160 2 167 4 11 112 13 558 11 l553 -3 0 -165z"/>
<path d="M2130 3202 l0 -79 36 2 c39 1 54 16 54 57 0 33 -27 61 -51 55 -15 -4
-19 0 -19 19 0 13 -4 24 -10 24 -6 0 -10 -33 -10 -78z m65 -22 c0 -28 -4 -35
-20 -35 -16 0 -21 8 -23 38 -3 35 -1 38 20 35 19 -2 23 -9 23 -38z"/>
<path d="M2430 3255 c0 -22 -3 -25 -24 -19 -30 7 -56 -18 -56 -55 0 -37 28
-61 65 -57 l30 3 3 77 c2 48 -1 76 -8 76 -5 0 -10 -11 -10 -25z m-5 -55 c9
-29 -4 -60 -25 -60 -21 0 -36 39 -26 65 8 22 44 18 51 -5z"/>
<path d="M1600 3191 c0 -56 13 -71 55 -67 27 3 30 7 33 46 5 64 -11 86 -17 25
-5 -41 -9 -50 -26 -50 -17 0 -20 8 -23 48 -4 62 -22 61 -22 -2z"/>
<path d="M1715 3231 c-9 -9 -5 -100 5 -106 6 -4 10 8 10 29 0 47 9 66 31 66
16 0 19 -8 19 -44 0 -25 5 -48 10 -51 6 -4 10 15 10 49 0 37 -4 57 -12 58 -32
3 -69 3 -73 -1z"/>
<path d="M1846 3227 c-13 -9 -17 -23 -14 -52 2 -33 8 -41 31 -49 21 -8 31 -6
43 6 15 15 14 16 -16 15 -19 -1 -35 3 -37 11 -3 8 7 12 31 12 29 0 36 4 36 19
0 22 -25 51 -44 51 -7 0 -20 -6 -30 -13z m52 -24 c2 -8 -6 -13 -22 -13 -25 0
-33 10 -19 24 10 10 36 3 41 -11z"/>
<path d="M1940 3184 c0 -67 18 -81 22 -17 3 40 6 48 23 48 17 0 20 -8 23 -47
2 -27 7 -48 12 -48 5 0 10 21 12 48 3 39 6 47 23 47 17 0 21 -9 26 -50 6 -59
22 -40 17 20 -4 46 -28 66 -58 48 -11 -8 -21 -9 -25 -3 -3 5 -21 9 -40 8 l-35
-1 0 -53z"/>
<path d="M2257 3222 c-38 -42 -4 -111 48 -98 35 9 31 24 -6 22 -18 0 -34 5
-36 12 -3 8 7 12 31 12 31 0 36 3 36 23 0 45 -43 62 -73 29z m51 -19 c2 -8 -6
-13 -22 -13 -25 0 -33 10 -19 24 10 10 36 3 41 -11z"/>
<path d="M2025 2950 c-14 -27 -14 -30 0 -30 13 0 15 -29 15 -213 l0 -213 -39
-17 c-29 -13 -43 -28 -55 -57 l-16 -40 -852 -2 -853 -3 -3 -97 -3 -98 -104 0
c-57 0 -106 -3 -108 -7 -3 -5 92 -8 211 -8 l217 0 0 -180 0 -180 -217 0 c-119
0 -214 -3 -211 -7 6 -11 415 -10 431 0 9 7 12 52 10 193 l-3 184 -108 3 -108
3 3 92 3 92 299 3 c233 2 301 -1 308 -10 6 -10 8 -10 8 0 0 9 68 12 305 12
l305 0 0 -95 0 -95 -93 0 c-59 0 -97 -4 -105 -12 -17 -17 -17 -349 0 -366 17
-17 409 -17 426 0 17 17 17 349 0 366 -8 8 -48 12 -115 12 l-104 0 3 93 3 92
230 3 230 2 14 -31 c9 -21 27 -37 52 -48 l39 -16 0 -360 0 -360 -272 3 c-150
1 -279 4 -285 7 -20 7 -17 115 2 115 19 0 19 9 -3 42 l-18 27 -17 -28 c-21
-36 -21 -41 -2 -41 12 0 15 -13 15 -60 l0 -60 -304 0 c-234 0 -305 3 -309 13
-4 10 -6 10 -6 0 -1 -10 -69 -13 -306 -13 l-305 0 0 59 c0 43 4 60 14 63 12 2
11 9 -4 37 l-17 35 -17 -32 c-20 -38 -20 -42 -1 -42 10 0 15 -16 17 -62 l3
-63 905 -5 c498 -3 906 -6 907 -8 2 -1 4 -125 6 -274 1 -150 3 16 5 368 l2
642 30 6 c48 9 80 48 80 96 0 54 -23 87 -71 102 l-39 11 0 214 c0 184 2 213
15 213 14 0 14 3 0 30 -9 17 -18 30 -20 30 -2 0 -11 -13 -20 -30z m102 -505
c55 -64 9 -155 -79 -155 -73 0 -121 78 -88 140 29 55 126 63 167 15z m-442
-460 l0 -180 -210 0 -210 0 -3 170 c-1 93 0 175 3 182 3 11 49 13 212 11 l208
-3 0 -180z"/>
<path d="M2040 2396 c0 -8 -8 -17 -17 -19 -17 -4 -17 -5 0 -6 9 0 17 -8 17
-16 0 -8 5 -15 10 -15 6 0 10 6 10 14 0 8 8 17 18 19 16 4 16 5 0 6 -10 0 -18
8 -18 16 0 8 -4 15 -10 15 -5 0 -10 -6 -10 -14z"/>
<path d="M1402 1911 c2 -7 7 -12 11 -12 12 1 9 15 -3 20 -7 2 -11 -2 -8 -8z"/>
<path d="M1462 1911 c2 -7 7 -12 11 -12 12 1 9 15 -3 20 -7 2 -11 -2 -8 -8z"/>
<path d="M1522 1911 c2 -7 7 -12 11 -12 12 1 9 15 -3 20 -7 2 -11 -2 -8 -8z"/>
<path d="M622 2172 c-9 -7 -12 -52 -10 -193 l3 -184 210 -3 c116 -1 220 0 233
3 l22 5 -2 188 -3 187 -220 2 c-121 2 -226 -1 -233 -5z m443 -187 l0 -180
-220 0 -220 0 -3 170 c-1 93 0 175 3 182 3 11 50 13 222 11 l218 -3 0 -180z"/>
<path d="M771 2098 c15 -10 14 -19 -7 -102 -28 -108 -28 -106 -10 -106 9 0 17
15 21 40 7 44 39 90 61 90 17 0 18 -35 2 -80 -9 -29 -9 -35 7 -46 16 -12 21
-11 37 3 10 9 18 21 18 26 0 6 -6 2 -14 -9 -22 -29 -28 -12 -15 38 17 63 8 81
-37 76 -38 -4 -38 -3 -18 65 4 14 -1 17 -28 16 -27 0 -30 -2 -17 -11z"/>
<path d="M930 1959 c0 -5 5 -7 10 -4 6 4 10 -10 10 -34 0 -23 5 -41 10 -41 6
0 10 20 10 45 0 38 -3 45 -20 45 -11 0 -20 -5 -20 -11z"/>
<path d="M111 2098 c15 -10 14 -19 -7 -102 -28 -108 -28 -106 -10 -106 9 0 17
15 21 40 7 44 39 90 61 90 17 0 18 -35 2 -80 -9 -29 -9 -35 7 -46 16 -12 21
-11 37 3 10 9 18 21 18 26 0 6 -6 2 -14 -9 -22 -29 -28 -12 -15 38 17 63 8 81
-37 76 -38 -4 -38 -3 -18 65 4 14 -1 17 -28 16 -27 0 -30 -2 -17 -11z"/>
<path d="M274 1934 c-8 -31 10 -74 31 -74 21 0 39 43 31 74 -5 19 -13 26 -31
26 -18 0 -26 -7 -31 -26z m44 -21 c-2 -21 -7 -38 -13 -38 -5 0 -11 17 -13 38
-3 29 0 37 13 37 13 0 16 -8 13 -37z"/>
<path d="M822 1720 c-19 -31 -14 -40 23 -40 l36 0 -16 30 c-18 35 -26 37 -43
10z"/>
<path d="M2196 1147 c-4 -24 -2 -44 4 -49 5 -4 8 -5 6 -2 -3 3 1 25 8 48 10
34 11 43 1 43 -7 0 -16 -18 -19 -40z"/>
<path d="M2246 1181 c-4 -7 -5 -15 -2 -18 9 -9 19 4 14 18 -4 11 -6 11 -12 0z"/>
<path d="M2340 1112 l5 -47 3 39 c2 21 0 42 -5 47 -4 4 -6 -13 -3 -39z"/>
<path d="M2290 1135 c-4 -29 0 -69 9 -77 4 -5 5 9 3 30 -5 54 -9 71 -12 47z"/>
<path d="M2150 1105 c0 -8 2 -15 4 -15 2 0 6 7 10 15 3 8 1 15 -4 15 -6 0 -10
-7 -10 -15z"/>
<path d="M1472 968 c-14 -14 -17 -324 -4 -346 7 -10 127 -12 568 -10 l559 3 3
169 c2 116 -1 173 -9 182 -16 19 -1098 21 -1117 2z m1113 -173 l0 -170 -555 0
-555 0 -3 160 c-1 87 0 165 2 172 4 11 112 13 558 11 l553 -3 0 -170z"/>
<path d="M2010 801 l0 -78 37 1 c31 1 40 6 51 29 19 39 -3 82 -41 82 -22 -1
-27 4 -27 22 0 13 -4 23 -10 23 -6 0 -10 -33 -10 -79z m65 -21 c0 -28 -4 -35
-20 -35 -13 0 -21 8 -23 23 -5 34 5 54 25 50 13 -2 18 -13 18 -38z"/>
<path d="M2310 856 c0 -19 -4 -22 -23 -19 -29 6 -50 -19 -50 -58 0 -38 14 -52
58 -55 l35 -3 0 79 c0 47 -4 80 -10 80 -5 0 -10 -11 -10 -24z m-5 -76 c0 -28
-4 -35 -20 -35 -13 0 -21 8 -23 23 -5 34 5 54 25 50 13 -2 18 -13 18 -38z"/>
<path d="M1727 822 c-38 -42 -5 -111 48 -98 35 9 32 27 -4 20 -20 -4 -30 -2
-34 10 -5 13 1 16 28 16 41 0 48 8 32 41 -16 30 -48 36 -70 11z m51 -19 c2 -8
-6 -13 -22 -13 -25 0 -33 10 -19 24 10 10 36 3 41 -11z"/>
<path d="M1830 777 c0 -36 4 -56 10 -52 6 3 10 26 10 51 0 37 3 44 20 44 17 0
20 -7 20 -44 0 -25 5 -48 10 -51 6 -4 10 8 10 29 0 47 9 66 31 66 16 0 19 -8
19 -44 0 -25 5 -48 10 -51 6 -4 10 15 10 49 0 31 -3 57 -7 57 -5 1 -38 2 -75
3 l-68 1 0 -58z"/>
<path d="M2134 815 c-30 -46 7 -105 56 -90 29 9 24 24 -6 22 -40 -3 -42 21 -2
25 38 3 48 27 23 52 -24 23 -52 20 -71 -9z m64 -12 c2 -8 -6 -13 -22 -13 -25
0 -33 10 -19 24 10 10 36 3 41 -11z"/>
<path d="M2025 550 c-14 -27 -14 -30 0 -30 13 0 15 -11 13 -62 l-3 -63 -293
-3 -292 -2 2 -183 3 -182 565 -3 c311 -1 575 0 588 3 22 5 22 6 20 183 l-3
177 -285 5 -285 5 -3 63 c-2 51 0 62 13 62 14 0 14 3 0 30 -9 17 -18 30 -20
30 -2 0 -11 -13 -20 -30z m585 -340 l0 -170 -575 0 -575 0 0 163 c0 90 3 167
7 170 3 4 262 7 575 7 l568 0 0 -170z"/>
<path d="M1928 294 c-12 -11 -10 -154 2 -154 6 0 10 9 10 19 0 32 17 33 38 4
11 -16 23 -25 27 -21 4 4 -2 19 -14 34 l-21 27 22 24 c16 18 18 23 6 23 -8 0
-23 -10 -34 -21 l-19 -21 -5 47 c-3 26 -8 43 -12 39z"/>
<path d="M1737 260 c-9 -11 -12 -20 -7 -20 6 0 10 -12 10 -27 0 -50 11 -73 34
-72 11 0 15 3 9 6 -15 5 -18 89 -4 95 4 2 1 11 -8 20 -16 16 -18 16 -34 -2z"/>
<path d="M1808 225 c-17 -38 0 -79 35 -83 37 -5 57 14 57 52 0 39 -15 56 -52
56 -21 0 -32 -7 -40 -25z m60 3 c30 -30 -1 -94 -33 -68 -18 15 -20 51 -3 68
15 15 21 15 36 0z"/>
<path d="M2034 225 c-14 -21 -15 -31 -6 -51 7 -13 19 -27 27 -30 21 -9 67 5
60 17 -5 7 -11 6 -20 -1 -15 -12 -41 -4 -49 16 -4 11 4 14 34 14 32 0 40 4 40
18 0 46 -60 57 -86 17z m56 0 c11 -13 8 -15 -14 -15 -25 0 -33 10 -19 23 10
11 19 8 33 -8z"/>
<path d="M2140 193 c0 -29 5 -53 10 -53 6 0 10 20 10 44 0 31 5 46 16 50 26
10 34 -2 34 -50 0 -24 5 -44 10 -44 12 0 13 79 2 97 -4 7 -25 12 -45 11 l-37
-1 0 -54z"/>
<path d="M2267 243 c-17 -16 -5 -42 24 -52 18 -6 29 -16 26 -23 -5 -14 -21
-15 -52 -2 -18 7 -19 6 -6 -10 21 -26 75 -18 79 12 3 18 -3 25 -27 33 -17 6
-31 15 -31 19 0 16 21 23 33 11 16 -16 27 -14 21 4 -6 15 -55 21 -67 8z"/>
<path d="M1 93 l-1 -93 93 1 c82 1 88 2 57 12 -45 14 -123 92 -137 137 -10 31
-11 25 -12 -57z"/>
</g>
</svg>
